<svg width="38" height="38" viewBox="0 0 38 38" fill="none" xmlns="http://www.w3.org/2000/svg">
<path d="M29.9992 13.7134C29.9749 13.7636 29.9497 13.8131 29.9279 13.8634C29.7603 14.2439 29.4762 14.4618 29.0563 14.4912C28.9783 14.497 28.8995 14.497 28.8207 14.497C22.2704 14.497 15.72 14.4953 9.16958 14.492C8.94943 14.4971 8.73076 14.4548 8.5284 14.368C8.16968 14.2003 7.99786 13.8793 8.00205 13.4812C7.9994 13.2931 8.05294 13.1084 8.15581 12.9509C8.25868 12.7934 8.40622 12.6702 8.57953 12.5969C9.18132 12.3162 9.78981 12.048 10.3958 11.7756L18.4328 8.16065C18.5618 8.10198 18.6951 8.05169 18.8259 7.99805H19.1695C19.3195 8.06175 19.4712 8.12209 19.6204 8.18831C22.8087 9.626 25.9976 11.059 29.187 12.4872C29.5834 12.6648 29.8835 12.8962 29.9992 13.3253V13.7134Z" fill="#B6B6B6"/>
<path d="M30.0002 29.0981C29.7488 29.8265 29.5041 29.9975 28.7238 29.9975C22.2002 29.9975 15.6772 29.9975 9.15474 29.9975C8.76835 29.9975 8.43226 29.9053 8.19255 29.5784C8.09148 29.441 8.02762 29.2797 8.00715 29.1104C7.98669 28.941 8.01031 28.7692 8.07573 28.6116C8.14115 28.4541 8.24615 28.3161 8.38057 28.211C8.51498 28.1059 8.67425 28.0374 8.84295 28.0119C8.97046 27.9949 9.09902 27.987 9.22766 27.9884H28.7321C29.4974 27.9884 29.7488 28.1653 30.0002 28.8802V29.0981Z" fill="#B6B6B6"/>
<path d="M27.5078 16.4037V25.3718C27.6816 25.3835 27.8544 25.4073 28.0249 25.4431C28.2438 25.505 28.4342 25.6414 28.5633 25.8286C28.6924 26.0159 28.7522 26.2424 28.7323 26.469C28.6778 26.9827 28.3132 27.3448 27.8103 27.3817C27.7181 27.3892 27.6251 27.3901 27.5321 27.3901C21.8394 27.3901 16.1464 27.3901 10.4532 27.3901C10.2823 27.3958 10.1114 27.378 9.94527 27.3373C9.72387 27.2706 9.53319 27.1278 9.40695 26.934C9.28071 26.7403 9.22706 26.5082 9.25548 26.2787C9.28262 26.0454 9.39139 25.8291 9.56256 25.6682C9.73373 25.5073 9.95627 25.4122 10.1908 25.3995C10.2822 25.3945 10.3744 25.3995 10.48 25.3995V16.4112C10.3803 16.4003 10.2755 16.3936 10.1724 16.3769C10.0602 16.3612 9.95693 16.3068 9.88069 16.2229C9.80445 16.1391 9.76002 16.0311 9.75514 15.9179C9.75025 15.8047 9.78522 15.6933 9.85396 15.6032C9.92269 15.5131 10.0208 15.4499 10.1313 15.4247C10.2218 15.4042 10.3143 15.3941 10.4071 15.3945C16.1288 15.3945 21.8503 15.3945 27.5715 15.3945H27.636C28.0039 15.4029 28.2361 15.5982 28.2361 15.8974C28.2361 16.1967 28.0232 16.3727 27.6553 16.3945L27.5078 16.4037ZM20.4849 16.4104H17.507V25.3785H20.4866L20.4849 16.4104ZM25.4803 25.3861V16.4121H22.504V25.3861H25.4803ZM12.51 25.3861H15.4737V16.4062H12.51V25.3861Z" fill="#B6B6B6"/>
</svg>
