<svg width="26" height="26" viewBox="0 0 26 26" fill="none" xmlns="http://www.w3.org/2000/svg">
<path d="M13.104 0.666992C6.23329 0.666992 0.664062 6.26077 0.664062 13.1597C0.664062 19.5312 5.41303 24.7874 11.549 25.5559V16.697C10.8554 16.3933 10.2653 15.8938 9.85097 15.2597C9.43669 14.6256 9.21622 13.8845 9.21655 13.127C9.21625 12.616 9.31656 12.1099 9.51175 11.6377C9.70695 11.1655 9.99322 10.7363 10.3542 10.3748C10.7152 10.0132 11.1438 9.72637 11.6157 9.53053C12.0875 9.3347 12.5932 9.23374 13.104 9.23344C15.2507 9.23344 16.9915 10.9772 16.9915 13.1278C16.9919 13.8853 16.7714 14.6264 16.3571 15.2605C15.9428 15.8946 15.3527 16.394 14.659 16.6978V25.5559C20.7951 24.7874 25.544 19.5304 25.544 13.1597C25.544 6.26077 19.9748 0.666992 13.104 0.666992Z" fill="#00B5EF"/>
</svg>
