<svg width="35" height="35" viewBox="0 0 35 35" fill="none" xmlns="http://www.w3.org/2000/svg">
<path d="M0 17.5C0 7.83848 7.83221 0 17.4937 0C27.1553 0 34.9875 7.83848 34.9875 17.5C34.9875 27.1615 27.1553 35 17.4937 35C7.83221 35 0 27.1615 0 17.5Z" fill="#F26522"/>
<path d="M8.34086 27.2228L18.3154 27.2213C19.7102 27.1691 21.0615 27.0921 22.3724 26.6574C25.0579 25.7839 27.0747 24.2696 27.8709 21.832C28.6383 19.4925 27.0537 16.8068 24.1622 16.596C26.6238 15.9419 28.7883 14.4416 29.3489 12.4699C30.3371 9.00491 27.4331 7.71925 23.7229 7.7768C25.9536 8.25125 27.2761 9.61391 26.5452 12.1736C25.9831 14.1468 23.8691 15.6775 21.3904 16.386C24.3169 16.5851 25.8696 18.8866 25.1932 21.2526C24.5634 23.4615 22.4237 25.2449 19.7382 26.1207C18.4281 26.5547 17.0753 26.6255 15.6812 26.6776L8.33697 26.9622L8.34086 27.2228ZM8.36885 26.207L13.0805 25.9893C14.4722 25.9387 15.8251 25.8664 17.1367 25.4316C19.823 24.5558 22.0723 22.833 22.7028 20.6257C23.3761 18.2581 21.7302 15.9621 18.8044 15.7638L18.8184 15.7117C21.2831 15.0568 23.3956 13.5246 23.9585 11.5529C25.0081 7.87402 21.8079 6.99902 17.7766 6.99902H9.23576L4.66406 23.1161L4.72393 23.1115C4.81334 23.1052 4.9012 23.1037 4.98828 23.1037L12.0845 8.08791L12.2509 8.10502L5.9586 23.2375C6.02235 23.2554 6.08611 23.2756 6.14986 23.2958L17.6118 7.88647L17.8069 7.93936L6.80996 23.5836C6.85894 23.6124 6.89315 23.6388 6.92892 23.6676C6.94991 23.6847 6.97168 23.7018 6.99889 23.7213L22.4968 10.191L22.6282 10.3466L7.57036 24.191C7.60702 24.2281 7.63961 24.2691 7.66754 24.3131C7.68154 24.3349 7.69864 24.3606 7.72741 24.4003L20.6821 17.9408L20.763 18.1314L8.09594 24.9906C8.14648 25.0956 8.15659 25.1259 8.19391 25.2364L20.2529 22.4068L20.2452 22.5935L8.34863 25.941L8.35019 25.9566C8.36185 26.0577 8.36574 26.095 8.36807 26.207H8.36885Z" fill="white"/>
</svg>
