<svg width="35" height="35" viewBox="0 0 35 35" fill="none" xmlns="http://www.w3.org/2000/svg">
<path d="M4.40011 24.6704L14.9964 24.6687C16.4781 24.6134 17.9137 24.5316 19.3062 24.0697C22.1591 23.1418 24.3017 21.5331 25.1474 18.9436C25.9627 16.4582 24.2794 13.6051 21.2076 13.3812C23.8226 12.6863 26.1221 11.0925 26.7176 8.99793C27.7674 5.31695 24.6824 3.95115 20.7409 4.01229C23.1106 4.51631 24.5156 5.96391 23.7392 8.68313C23.142 10.7793 20.8962 12.4054 18.263 13.1581C21.372 13.3697 23.0214 15.8146 22.3028 18.328C21.6338 20.6746 19.3608 22.5692 16.5079 23.4996C15.1161 23.9606 13.679 24.0358 12.198 24.0912L4.39598 24.3936L4.40011 24.6704ZM4.42985 23.5913L9.43517 23.3599C10.9136 23.3062 12.3508 23.2294 13.7442 22.7675C16.5979 21.8371 18.9874 20.007 19.6573 17.6621C20.3726 15.1469 18.624 12.7078 15.5159 12.4971L15.5308 12.4418C18.1491 11.7461 20.3932 10.1183 20.9912 8.02377C22.1062 4.11557 18.7066 3.18604 14.424 3.18604H5.35079L0.494141 20.3077L0.557739 20.3028C0.652725 20.2962 0.746059 20.2945 0.838566 20.2945L8.37712 4.3428L8.55387 4.36097L1.86937 20.4366C1.9371 20.4556 2.00482 20.4771 2.07255 20.4986L14.2489 4.1288L14.4562 4.18498L2.77379 20.8043C2.82583 20.8349 2.86217 20.863 2.90017 20.8936C2.92247 20.9117 2.94559 20.9299 2.9745 20.9506L19.4384 6.577L19.578 6.74225L3.58158 21.4496C3.62054 21.4891 3.65515 21.5325 3.68483 21.5794C3.6997 21.6025 3.71787 21.6298 3.74843 21.6719L17.5106 14.8098L17.5965 15.0123L4.13993 22.299C4.19362 22.4106 4.20436 22.4428 4.24401 22.5601L17.0547 19.5542L17.0464 19.7525L4.40837 23.3087L4.41002 23.3252C4.42241 23.4326 4.42654 23.4723 4.42902 23.5913H4.42985Z" fill="white"/>
<path d="M0 17.5C0 7.83502 7.83502 0 17.5 0C27.165 0 35 7.83502 35 17.5C35 27.165 27.165 35 17.5 35C7.83502 35 0 27.165 0 17.5Z" fill="#A20A3A"/>
<path d="M22.0009 7.77783H27.4453V28.7778H22.0009V22.8333C17.4446 24.4993 13.4546 24.6463 9.54087 20.811C7.91842 19.1233 6.84042 16.8242 7.22309 12.8178C7.28842 12.2042 7.16476 9.35905 6.44531 7.77783H10.9759C13.1288 11.1954 10.3708 15.5579 13.6693 18.3424C18.1641 21.2528 21.8111 17.7731 22.0009 14.6316V7.77783ZM16.9453 10.1112C19.3953 10.1112 21.2231 11.9864 21.2231 14.3889C21.2231 16.8141 19.3953 18.6667 16.9453 18.6667C14.4953 18.6667 12.6691 16.8141 12.6691 14.3889C12.6691 11.9864 14.4961 10.1112 16.9453 10.1112Z" fill="#F6B801"/>
</svg>
