<svg width="35" height="35" viewBox="0 0 35 35" fill="none" xmlns="http://www.w3.org/2000/svg">
<path fill-rule="evenodd" clip-rule="evenodd" d="M3.97663 3.99771H30.7995V30.8929H3.97546V3.99771H3.97663ZM33.0581 1.73438H1.7168V33.1562H33.0581V1.73438Z" fill="#FEFEFE"/>
<path fill-rule="evenodd" clip-rule="evenodd" d="M6.93945 12.2079H27.8345V6.9707H6.93945V12.2079ZM6.93945 27.9182H12.1626V22.6822H6.93945V27.9182ZM6.93945 20.063H19.9793V14.8107H6.93945V20.063Z" fill="#FEFEFE"/>
<path d="M0 17.5C0 7.83502 7.83502 0 17.5 0C27.165 0 35 7.83502 35 17.5C35 27.165 27.165 35 17.5 35C7.83502 35 0 27.165 0 17.5Z" fill="#007CC5"/>
<path d="M17.4206 23.3632L10.042 29.8652L14.1719 20.9732L5.75586 16.1263L15.3727 17.1552L17.4206 1.86621L19.4692 17.1552L29.0884 16.1263L20.6716 20.9732L24.8006 29.8652L17.4206 23.3632Z" fill="#191917"/>
<path d="M17.4188 23.1763L10.4501 29.3174L14.3506 20.9177L6.40039 16.3406L15.4923 17.3097L17.4188 2.92676L19.3476 17.3097L28.4403 16.3375L20.4886 20.9169L24.389 29.3174L17.4188 23.1763Z" fill="#E3300C"/>
<path d="M19.3475 17.3096H15.4929L14.3574 20.9214L17.4194 23.1761L20.4892 20.9176L19.3475 17.3096Z" fill="#007CC5"/>
<path d="M17.4173 22.4048C16.7595 22.405 16.1284 22.1443 15.6625 21.68C15.1965 21.2156 14.9337 20.5854 14.9316 19.9276C14.9333 19.2696 15.196 18.6391 15.662 18.1745C16.128 17.71 16.7593 17.4493 17.4173 17.4497C18.0754 17.4493 18.7067 17.71 19.1727 18.1745C19.6387 18.6391 19.9014 19.2696 19.903 19.9276C19.901 20.5854 19.6381 21.2156 19.1722 21.68C18.7062 22.1443 18.0752 22.405 17.4173 22.4048Z" fill="#191917"/>
<path d="M17.416 22.2648C16.7953 22.2654 16.1997 22.0197 15.76 21.5817C15.3202 21.1437 15.0722 20.5491 15.0703 19.9284C15.0703 19.3065 15.3174 18.7101 15.7571 18.2703C16.1969 17.8305 16.7933 17.5835 17.4152 17.5835C18.0371 17.5835 18.6336 17.8305 19.0733 18.2703C19.5131 18.7101 19.7601 19.3065 19.7601 19.9284C19.7583 20.5488 19.5105 21.1432 19.071 21.5812C18.6316 22.0191 18.0364 22.265 17.416 22.2648Z" fill="white"/>
<path d="M17.3316 18.3222C17.3285 18.3253 17.3262 18.3284 17.3262 18.3323C17.3262 18.3401 17.33 18.3439 17.3355 18.3478C17.3122 18.3471 17.3013 18.3362 17.3013 18.3362C17.3013 18.3362 17.309 18.3253 17.3324 18.3229L17.3316 18.3222ZM17.3549 18.3222C17.3604 18.3253 17.3666 18.3261 17.3751 18.3299C17.3751 18.3299 17.3689 18.3432 17.3503 18.3455C17.3542 18.3432 17.3596 18.3377 17.3596 18.3315C17.3596 18.3276 17.3573 18.3245 17.3542 18.3214V18.3222H17.3549ZM17.3028 18.3533C17.3075 18.3564 17.3262 18.3611 17.3417 18.3611C17.386 18.3611 17.3993 18.3299 17.4047 18.3276C17.4047 18.2965 17.3845 18.2685 17.3542 18.2646C17.3407 18.2627 17.327 18.2655 17.3153 18.2724C17.304 18.2784 17.295 18.288 17.2896 18.2996C17.3044 18.2957 17.3215 18.2771 17.3588 18.2841C17.3759 18.2872 17.3969 18.3113 17.3853 18.3152C17.3744 18.3089 17.372 18.3051 17.3635 18.3035C17.3332 18.2918 17.3044 18.3144 17.288 18.3268C17.2842 18.3268 17.2818 18.3245 17.2787 18.3245C17.2834 18.3377 17.2896 18.3424 17.302 18.3517L17.3028 18.3525V18.3533ZM17.4934 18.3222C17.4919 18.3234 17.4909 18.325 17.4902 18.3267C17.4895 18.3285 17.4893 18.3304 17.4895 18.3323C17.4895 18.3401 17.4934 18.3439 17.4988 18.3478C17.4778 18.3447 17.4646 18.3362 17.4646 18.3362C17.4646 18.3362 17.4739 18.3253 17.4934 18.3229V18.3222ZM17.5183 18.3222H17.5214C17.526 18.3253 17.533 18.3253 17.5346 18.3284C17.5369 18.3307 17.5385 18.3307 17.5393 18.3307C17.5393 18.3307 17.5323 18.3439 17.5144 18.3478C17.5183 18.3439 17.5221 18.3401 17.5221 18.3323C17.5222 18.3305 17.5219 18.3288 17.5212 18.3272C17.5205 18.3256 17.5195 18.3241 17.5183 18.3229V18.3222ZM17.3993 18.4451C17.4031 18.4489 17.407 18.4451 17.4125 18.4451C17.4296 18.4451 17.4467 18.4552 17.4615 18.4489C17.4879 18.4365 17.4576 18.3999 17.4576 18.3766C17.4568 18.3658 17.4592 18.3549 17.4646 18.3455C17.4646 18.3471 17.5144 18.3735 17.5463 18.3424C17.5494 18.3362 17.5571 18.3362 17.5618 18.3315C17.5634 18.3315 17.5657 18.3284 17.5657 18.3276L17.5688 18.3183C17.5641 18.3183 17.5618 18.3276 17.5556 18.3222C17.5354 18.3089 17.5221 18.3035 17.5004 18.3066C17.4794 18.3066 17.4615 18.3183 17.4615 18.3183C17.4537 18.2794 17.533 18.2716 17.5533 18.2988C17.5499 18.2898 17.5445 18.2816 17.5377 18.2747C17.5144 18.2537 17.4615 18.2693 17.4475 18.2879C17.4366 18.3012 17.435 18.3603 17.4366 18.3828C17.4366 18.3945 17.4475 18.3999 17.4459 18.4116C17.4459 18.4209 17.4405 18.4303 17.4319 18.4318C17.4195 18.4342 17.393 18.4194 17.4 18.4451H17.3993ZM18.4936 21.4293C18.4656 21.4176 18.4624 21.3904 18.443 21.3748C18.4407 21.3748 18.4313 21.3647 18.4251 21.3639L18.4072 21.3531C18.3854 21.3429 18.359 21.3383 18.3349 21.3321C18.3256 21.3289 18.3178 21.3289 18.3084 21.3282C18.2976 21.3243 18.2882 21.3173 18.2773 21.3126C18.2423 21.3056 18.1996 21.3087 18.1615 21.3056C18.1023 21.3025 18.0479 21.2939 17.9927 21.2869C17.9678 21.2831 17.9382 21.2807 17.9149 21.2714C17.9071 21.2683 17.8994 21.2636 17.8916 21.2621C17.873 21.2567 17.8532 21.2581 17.8356 21.2659C17.8278 21.2683 17.82 21.2753 17.8146 21.2753C17.8037 21.2745 17.7959 21.2582 17.7796 21.2621C17.7718 21.2698 17.7664 21.2823 17.7734 21.2908C17.7794 21.2976 17.7865 21.3034 17.7944 21.3079C17.813 21.3157 17.8231 21.3056 17.8356 21.3025C17.8799 21.2908 17.9305 21.3118 17.9686 21.3181C18.0705 21.3336 18.2042 21.3282 18.2937 21.3569C18.3108 21.3601 18.3279 21.3632 18.3427 21.3686C18.3847 21.3842 18.4142 21.4091 18.4469 21.4293C18.4671 21.4542 18.4858 21.4728 18.5223 21.4814C18.5394 21.4876 18.5674 21.4876 18.5674 21.4635C18.5682 21.4355 18.5169 21.4402 18.4936 21.4293ZM19.1173 21.3033C19.1243 21.3095 19.1383 21.3266 19.1368 21.3383C19.1357 21.341 19.1339 21.3435 19.1316 21.3453C19.1293 21.347 19.1265 21.3481 19.1235 21.3484C19.1064 21.3484 19.1095 21.3072 19.0815 21.3095C19.0784 21.3111 19.0738 21.3111 19.0706 21.3173C19.0629 21.3406 19.1134 21.3492 19.0986 21.3857C19.094 21.4013 19.0761 21.4036 19.0551 21.4036C19.0551 21.3958 19.0629 21.3927 19.0629 21.3849C19.0629 21.3616 19.0294 21.3383 19.01 21.3585C19.0108 21.3772 19.0325 21.3873 19.0248 21.4075C19.0139 21.4192 18.9851 21.4192 18.9758 21.4075C18.9781 21.4059 18.989 21.4098 18.9936 21.4075C18.9959 21.407 18.9979 21.4057 18.9993 21.4038C19.0007 21.402 19.0015 21.3997 19.0014 21.3974C19.0045 21.3873 18.9936 21.3842 18.9835 21.3795C18.9758 21.3717 18.968 21.3671 18.9618 21.3608C18.9656 21.3196 18.9275 21.3118 18.8871 21.3079L18.6771 21.2893C18.6802 21.2582 18.6499 21.2543 18.6234 21.2488C18.5869 21.2411 18.5534 21.2395 18.5153 21.2302C18.4998 21.2278 18.4749 21.2201 18.4733 21.2076C18.4726 21.1936 18.4928 21.1843 18.5037 21.1765C18.5394 21.1501 18.5737 21.1252 18.6048 21.0972C18.6687 21.1106 18.7294 21.1362 18.7837 21.1726C18.7984 21.1804 18.8148 21.1858 18.8272 21.1921C18.8428 21.2014 18.8591 21.2076 18.8739 21.2131C18.9478 21.2341 19.0504 21.2138 19.1049 21.2504C19.1235 21.2621 19.1406 21.2792 19.1406 21.3048C19.1274 21.3048 19.1274 21.2737 19.1126 21.2722C19.1049 21.2722 19.0979 21.2799 19.0979 21.2854C19.0979 21.2932 19.1088 21.2978 19.1165 21.3025L19.1173 21.3033ZM18.9229 21.3756C18.9081 21.3686 18.8918 21.3686 18.8739 21.3678C18.8474 21.3647 18.8194 21.3585 18.7922 21.3546C18.7642 21.3492 18.7362 21.3476 18.7129 21.3414C18.73 21.3321 18.7595 21.3352 18.7852 21.3352C18.8342 21.3321 18.9151 21.3352 18.933 21.3624C18.9346 21.3685 18.9356 21.3747 18.9361 21.3811C18.9338 21.3811 18.9283 21.3772 18.9229 21.3748V21.3756ZM18.6927 21.3811C18.7004 21.4036 18.7207 21.4106 18.7168 21.4433C18.7097 21.4539 18.7007 21.4631 18.6903 21.4705C18.692 21.4641 18.692 21.4574 18.6904 21.451C18.6888 21.4446 18.6855 21.4387 18.681 21.4339C18.6748 21.4339 18.6779 21.4448 18.674 21.4448C18.6631 21.4417 18.667 21.4293 18.6514 21.4293C18.6491 21.4448 18.6623 21.4511 18.6631 21.4643C18.667 21.4969 18.6437 21.5141 18.6133 21.5109C18.6164 21.4969 18.6367 21.5016 18.6405 21.4907C18.6437 21.4752 18.6289 21.4643 18.6196 21.4573C18.6118 21.4573 18.6195 21.4651 18.6102 21.4682C18.6001 21.4643 18.5931 21.4456 18.576 21.4526C18.5838 21.4619 18.5931 21.4791 18.583 21.4915C18.5687 21.4992 18.5526 21.503 18.5363 21.5024C18.5099 21.5016 18.4834 21.4954 18.4702 21.4798C18.4624 21.4689 18.4586 21.4565 18.4508 21.4487C18.4407 21.4386 18.4243 21.4386 18.4134 21.4285C18.4072 21.4246 18.4041 21.4153 18.3987 21.4098C18.3893 21.4021 18.3738 21.3966 18.3582 21.3904C18.3137 21.3712 18.2665 21.3591 18.2182 21.3546C18.1358 21.3468 18.0471 21.3492 17.9678 21.3352C17.939 21.3289 17.911 21.3227 17.8846 21.3196C17.8558 21.3165 17.827 21.3258 17.8014 21.3227C17.778 21.3188 17.7648 21.3017 17.7578 21.2807C17.7535 21.2258 17.7387 21.1722 17.7142 21.1228C17.7053 21.0987 17.7037 21.0725 17.7096 21.0474C17.7104 21.0295 17.7189 21.007 17.7228 20.9828C17.7259 20.9595 17.7259 20.9331 17.7298 20.909C17.7337 20.8729 17.7471 20.8385 17.7687 20.8094C17.7788 20.8117 17.7866 20.8273 17.7928 20.8343C17.813 20.8475 17.8379 20.853 17.8566 20.8701C17.8642 20.8768 17.8708 20.8847 17.876 20.8934C17.9001 20.9346 17.8916 20.9992 17.9095 21.049C17.9126 21.056 17.9188 21.0606 17.9172 21.0684C17.8908 21.0723 17.8574 21.0715 17.8418 21.0886C17.8535 21.1081 17.8838 21.0925 17.9095 21.0925C17.9344 21.0925 17.9647 21.1003 17.9818 21.112C17.995 21.1221 18.0082 21.1431 18.0253 21.1493C18.0518 21.1594 18.0946 21.161 18.1288 21.1648C18.1677 21.168 18.2066 21.1711 18.2377 21.1781C18.2913 21.1882 18.3388 21.2084 18.3854 21.2278L18.4072 21.2387C18.4142 21.2426 18.4189 21.2488 18.4259 21.2519C18.4414 21.2621 18.4632 21.2613 18.4827 21.2636C18.5029 21.2675 18.52 21.2745 18.5371 21.2792C18.5511 21.2869 18.5737 21.2908 18.5923 21.3025C18.5993 21.3056 18.604 21.3134 18.6126 21.3165C18.6258 21.3188 18.639 21.3149 18.6491 21.3188C18.662 21.323 18.6741 21.3293 18.6849 21.3375C18.7074 21.3507 18.7261 21.3678 18.7261 21.4005C18.716 21.3943 18.7144 21.3663 18.6927 21.3811ZM17.8714 21.4643C17.8457 21.4495 17.82 21.4285 17.7866 21.4207C17.7757 21.4176 17.7656 21.4153 17.7555 21.4176C17.7516 21.4308 17.771 21.4285 17.7827 21.4301C17.8049 21.434 17.8261 21.4425 17.8449 21.4549C17.8527 21.4612 17.8682 21.4689 17.8628 21.4798C17.8535 21.4985 17.8192 21.4666 17.8192 21.4596C17.8099 21.4573 17.806 21.4479 17.7959 21.4441C17.7881 21.4417 17.7788 21.4441 17.7702 21.4417C17.7601 21.4417 17.7531 21.4355 17.7454 21.4339C17.7415 21.4612 17.7866 21.4495 17.7998 21.4612C17.8037 21.4643 17.7967 21.4682 17.7967 21.4728C17.8014 21.4791 17.806 21.4806 17.8099 21.4837C17.8099 21.4829 17.806 21.4783 17.8091 21.4728C17.8402 21.4666 17.8426 21.5024 17.8169 21.5102C17.7905 21.5172 17.7734 21.4969 17.7547 21.4915C17.7236 21.4861 17.6979 21.4954 17.673 21.4892C17.6497 21.4829 17.6411 21.4689 17.6256 21.4549C17.6077 21.4371 17.5867 21.4363 17.5618 21.4285C17.5735 21.4052 17.5805 21.3779 17.6007 21.3608C17.6108 21.3507 17.6598 21.3282 17.6847 21.3429C17.6979 21.3484 17.7189 21.3523 17.7282 21.3569C17.736 21.3608 17.7438 21.3663 17.7492 21.3717C17.757 21.3779 17.7625 21.3896 17.7702 21.3927C17.7874 21.3982 17.8177 21.4021 17.8379 21.4098C17.8434 21.4106 17.8535 21.4129 17.8535 21.4199C17.8535 21.4238 17.8527 21.4301 17.8457 21.4301C17.841 21.4301 17.8379 21.4231 17.834 21.4199C17.8185 21.4098 17.7874 21.4106 17.7679 21.4028C17.771 21.4067 17.7788 21.4091 17.7811 21.4106C17.813 21.4176 17.8379 21.4316 17.862 21.4448C17.869 21.4479 17.8815 21.4565 17.8714 21.4635V21.4643ZM17.526 21.2418C17.5291 21.098 17.5338 20.9494 17.5393 20.8032C17.5393 20.8032 17.5408 20.8032 17.5424 20.8001L17.5431 20.8032C17.5478 20.8086 17.5478 20.8187 17.5478 20.8265L17.5719 21.0085C17.5813 21.077 17.6007 21.1415 17.603 21.2123C17.5875 21.2201 17.5696 21.2247 17.5548 21.2294C17.5455 21.2333 17.5393 21.2426 17.526 21.2418ZM17.6614 21.168C17.6505 21.1734 17.6373 21.1734 17.624 21.1757C17.5961 21.0598 17.5758 20.9421 17.5634 20.8234C17.548 20.6973 17.5418 20.5701 17.5447 20.4431C17.5525 20.44 17.5603 20.4353 17.5727 20.4392C17.5898 20.447 17.5828 20.5053 17.5844 20.5302C17.5875 20.6274 17.5937 20.7293 17.5999 20.818C17.6046 20.8833 17.6131 20.9463 17.6233 21.0007C17.631 21.0614 17.6528 21.1135 17.6614 21.168ZM17.6279 20.7822C17.6178 20.6744 17.6165 20.5659 17.624 20.4579C17.6248 20.4431 17.6248 20.4291 17.6271 20.4159C17.631 20.391 17.6318 20.3653 17.6481 20.3482L17.6769 20.3272C17.6863 20.319 17.6951 20.3102 17.7034 20.3008C17.7072 20.2852 17.7189 20.2665 17.7189 20.2549C17.7189 20.251 17.7205 20.2549 17.7205 20.2557C17.7298 20.4758 17.6979 20.6297 17.6769 20.8304C17.6707 20.8849 17.666 20.9393 17.6614 20.9961C17.6396 20.9338 17.6373 20.8576 17.6279 20.7814V20.7822ZM17.4731 20.412L17.4234 20.4695C17.4156 20.4789 17.4078 20.4905 17.3969 20.4975C17.4514 20.3435 17.5214 20.1973 17.568 20.034C17.5914 19.9523 17.6147 19.8707 17.6373 19.7851C17.6598 19.6964 17.6707 19.6047 17.673 19.5005C17.673 19.4997 17.673 19.4973 17.6754 19.4973L17.6769 19.4981C17.694 19.5082 17.6995 19.5277 17.7034 19.5448C17.7244 19.5985 17.7345 19.6615 17.7469 19.7237C17.7539 19.7657 17.7601 19.8092 17.7617 19.8559C17.7617 19.8753 17.7671 19.8987 17.7671 19.9228C17.7679 19.9461 17.771 19.9741 17.7679 19.9935C17.764 20.0184 17.7446 20.0464 17.7314 20.069C17.7189 20.0939 17.7034 20.1149 17.6886 20.1359C17.6615 20.1797 17.6311 20.2213 17.5976 20.2603C17.5556 20.3109 17.5167 20.3638 17.4731 20.4112V20.412ZM17.5074 20.5528C17.5105 20.6725 17.5011 20.7869 17.498 20.9058C17.4949 21.0458 17.4833 21.1812 17.477 21.3072C17.4506 21.3033 17.4257 21.2932 17.3961 21.2877C17.3658 21.2823 17.3332 21.2823 17.3036 21.2807C17.3487 21.1283 17.4031 20.9743 17.4358 20.8079L17.4996 20.5076C17.4996 20.5076 17.4996 20.5053 17.5019 20.5053C17.5097 20.5022 17.5074 20.5419 17.5074 20.552V20.5528ZM17.2896 21.3865C17.3005 21.3616 17.3106 21.3391 17.3207 21.3103H17.3246C17.3176 21.3352 17.3059 21.3647 17.2966 21.3881C17.2927 21.3881 17.2927 21.3849 17.2896 21.3865ZM17.4203 21.4534C17.4109 21.4791 17.4125 21.5047 17.386 21.521C17.3814 21.5234 17.3728 21.5211 17.3705 21.5249C17.3479 21.5389 17.3495 21.6012 17.3067 21.5747C17.2974 21.5522 17.3254 21.5467 17.3363 21.5599C17.3363 21.5467 17.3207 21.5459 17.3067 21.5459C17.3098 21.5195 17.3277 21.5102 17.344 21.4969V21.4837C17.3324 21.4728 17.3215 21.4876 17.323 21.5008C17.3192 21.5078 17.3044 21.5179 17.2974 21.5288C17.2896 21.542 17.2896 21.556 17.2756 21.542C17.2725 21.5063 17.3028 21.5047 17.3098 21.4798C17.3098 21.4759 17.3067 21.4759 17.3059 21.4728C17.2826 21.4705 17.2904 21.5008 17.2725 21.5047C17.2647 21.5195 17.2624 21.5389 17.253 21.5514C17.2492 21.5553 17.2453 21.5514 17.2406 21.549C17.2437 21.5459 17.2383 21.5428 17.2406 21.5389C17.2422 21.535 17.246 21.535 17.2484 21.5319C17.2367 21.5094 17.2554 21.4853 17.2694 21.4744C17.2577 21.4511 17.2383 21.4938 17.2344 21.5047C17.2313 21.5141 17.2344 21.5242 17.2266 21.5242C17.2165 21.5234 17.225 21.4884 17.2289 21.4791C17.2352 21.4658 17.2445 21.4635 17.2476 21.4542C17.2414 21.4542 17.2297 21.4619 17.225 21.4689C17.2212 21.4728 17.2196 21.4822 17.2149 21.4822C17.2033 21.4822 17.2142 21.4635 17.2157 21.4612C17.2266 21.4495 17.2313 21.4441 17.2492 21.4409C17.2554 21.4355 17.2585 21.4254 17.2663 21.4215C17.2818 21.4106 17.3254 21.4153 17.3479 21.4176C17.3627 21.4184 17.379 21.4215 17.3915 21.4246C17.407 21.4246 17.4226 21.4246 17.4304 21.4347C17.4288 21.4441 17.4226 21.4464 17.4203 21.4534ZM17.2616 21.5607C17.2647 21.5607 17.2655 21.563 17.2694 21.563C17.267 21.5529 17.2818 21.5514 17.2849 21.5576C17.2927 21.5825 17.2523 21.584 17.2616 21.5607ZM17.1418 21.4518C17.0874 21.4534 17.0345 21.4549 16.9847 21.4596C16.9715 21.4075 16.9583 21.3562 16.9458 21.3017C17.0026 21.2994 17.0641 21.3118 17.1154 21.3165C17.1216 21.3243 17.1255 21.3321 17.1309 21.3414C17.1418 21.3523 17.1574 21.3585 17.1698 21.3694L17.1916 21.3943C17.207 21.403 17.2213 21.4135 17.2344 21.4254C17.2243 21.4347 17.211 21.4394 17.2048 21.4487C17.1908 21.4565 17.1644 21.4518 17.1418 21.4526V21.4518ZM16.9979 21.5141C16.9961 21.5113 16.995 21.508 16.9948 21.5047C17.0004 21.5018 17.0061 21.4992 17.0119 21.4969C17.0655 21.4866 17.1199 21.4809 17.1745 21.4798C17.1784 21.4798 17.1893 21.4759 17.19 21.4829C17.1294 21.4969 17.0594 21.5024 16.9972 21.5141H16.9979ZM16.9171 21.5374C16.8796 21.5486 16.841 21.5554 16.8019 21.5576L16.7452 21.5568C16.7192 21.5556 16.6935 21.5506 16.669 21.542C16.6579 21.5362 16.6474 21.5291 16.6378 21.521C16.6246 21.5078 16.6145 21.4923 16.6207 21.4643C16.6207 21.4643 16.6238 21.4619 16.6238 21.4604V21.4472C16.6277 21.4417 16.6332 21.4355 16.6332 21.4262C16.6308 21.4161 16.626 21.4067 16.6192 21.3989C16.6118 21.3981 16.6042 21.3992 16.5974 21.4022C16.5906 21.4052 16.5847 21.41 16.5803 21.4161L16.5764 21.4223C16.5764 21.4223 16.5663 21.4324 16.5647 21.4324C16.5582 21.4356 16.551 21.4374 16.5437 21.4378C16.531 21.4385 16.5183 21.4363 16.5064 21.4316C16.4792 21.4192 16.4628 21.3943 16.4457 21.3709C16.4426 21.3523 16.4356 21.3429 16.438 21.3204C16.438 21.3072 16.4418 21.2893 16.4488 21.2784C16.452 21.2706 16.4698 21.2519 16.4621 21.2348C16.459 21.2286 16.4504 21.2271 16.445 21.2216C16.4387 21.2162 16.4411 21.2099 16.4356 21.203C16.4315 21.2011 16.4269 21.2008 16.4227 21.2021C16.4184 21.2034 16.4147 21.2062 16.4123 21.2099C16.403 21.2255 16.3983 21.2566 16.3929 21.2706C16.3936 21.2994 16.3921 21.3336 16.3991 21.3601C16.4014 21.3787 16.4146 21.3865 16.417 21.4036C16.4309 21.4214 16.4465 21.4379 16.4636 21.4526C16.4737 21.4682 16.5072 21.4798 16.515 21.4962C16.5305 21.5024 16.5422 21.5094 16.5585 21.5172C16.5717 21.5343 16.6036 21.5327 16.6176 21.5475C16.634 21.5524 16.6497 21.5595 16.6643 21.5685C16.7234 21.5887 16.7732 21.6175 16.8307 21.6369C16.8533 21.6502 16.8743 21.6634 16.8953 21.6743C16.9046 21.6875 16.9178 21.696 16.9264 21.7085H16.9248C16.9132 21.7046 16.9038 21.6867 16.8875 21.6953C16.8892 21.7014 16.8922 21.7071 16.8962 21.7121C16.9002 21.717 16.9052 21.7211 16.9108 21.724C16.9108 21.7272 16.9124 21.7272 16.9108 21.731C16.9163 21.7272 16.9186 21.7373 16.9248 21.7404C16.9139 21.7435 16.9077 21.7248 16.8968 21.7217C16.8945 21.7147 16.8875 21.7062 16.8789 21.7062C16.8751 21.7116 16.8836 21.7139 16.8813 21.7209L16.8712 21.7085C16.8611 21.7186 16.8774 21.7272 16.8813 21.7349C16.8751 21.7318 16.8681 21.7217 16.8587 21.7178C16.8533 21.7217 16.8587 21.7272 16.8587 21.7326C16.8533 21.7326 16.8533 21.7233 16.8494 21.7248C16.8439 21.7326 16.8494 21.7404 16.8533 21.7474C16.8564 21.7552 16.8611 21.7614 16.8626 21.7707C16.8688 21.8018 16.8525 21.8423 16.8688 21.8695C16.8486 21.8485 16.8618 21.8049 16.8587 21.7785C16.8547 21.7605 16.8482 21.7433 16.8393 21.7272C16.7864 21.6628 16.7132 21.6183 16.6316 21.6012C16.6145 21.5903 16.5842 21.5856 16.5616 21.5786C16.5087 21.5638 16.4558 21.5397 16.403 21.5195C16.3765 21.5024 16.3594 21.4806 16.3384 21.4604C16.3257 21.445 16.3142 21.4286 16.3042 21.4114C16.2958 21.397 16.29 21.3812 16.2871 21.3647C16.2832 21.3508 16.2811 21.3364 16.2809 21.3219C16.2775 21.3027 16.2762 21.2831 16.277 21.2636C16.2824 21.2206 16.2965 21.1791 16.3182 21.1415C16.3353 21.1127 16.3571 21.0886 16.3765 21.0653C16.3991 21.042 16.4232 21.0178 16.445 20.9898C16.4675 20.9541 16.4838 20.9198 16.515 20.8942C16.5305 20.8802 16.5492 20.8724 16.571 20.8607C16.6313 20.8286 16.6974 20.8085 16.7654 20.8016C16.8004 20.9323 16.8338 21.0661 16.8681 21.1967C16.8727 21.2154 16.8782 21.2356 16.8774 21.2543C16.8564 21.2481 16.7981 21.2309 16.7786 21.2426C16.7553 21.2543 16.7825 21.2838 16.8035 21.2838C16.7996 21.2862 16.7942 21.2862 16.7903 21.2877C16.7811 21.295 16.7705 21.3003 16.7592 21.3033C16.7561 21.3064 16.7522 21.3064 16.7483 21.3072C16.7351 21.3126 16.7281 21.3212 16.7218 21.3344C16.7141 21.3499 16.7265 21.3678 16.7483 21.3569C16.7599 21.3499 16.7771 21.3321 16.7872 21.3266C16.821 21.3121 16.8578 21.3058 16.8945 21.3079C16.9093 21.3608 16.9241 21.4168 16.9357 21.4752C16.8984 21.4819 16.8602 21.4819 16.8229 21.4752C16.7981 21.4674 16.7841 21.4658 16.7662 21.4814C16.7701 21.4868 16.7732 21.4892 16.7732 21.4969C16.7732 21.5203 16.7389 21.5125 16.7343 21.4938C16.7281 21.5234 16.7638 21.5459 16.7903 21.5483C16.7952 21.5493 16.8002 21.5493 16.8051 21.5483C16.8534 21.545 16.9011 21.5361 16.9474 21.5218C16.9505 21.5374 16.9287 21.5351 16.9186 21.5405L16.9171 21.5382V21.5374ZM16.8836 21.7209C16.8976 21.7326 16.9023 21.752 16.9108 21.7684C16.8984 21.7552 16.8929 21.7373 16.8836 21.7217V21.7209ZM16.711 20.3568C16.683 20.2378 16.6565 20.118 16.6238 19.999C16.6161 19.9702 16.6106 19.9407 16.6028 19.9111C16.5931 19.8819 16.5853 19.852 16.5795 19.8217C16.5414 19.6412 16.4932 19.4639 16.4504 19.285V19.2819C16.4761 19.2928 16.5126 19.2889 16.5367 19.2967C16.5328 19.32 16.5406 19.3426 16.571 19.3402C16.5756 19.3504 16.578 19.362 16.5834 19.3714C16.6044 19.3776 16.6215 19.3675 16.6332 19.362C16.7389 19.4056 16.8338 19.4585 16.9606 19.4787C16.9668 19.6047 16.9505 19.7377 16.9474 19.8746C16.9474 19.9204 16.9396 19.964 16.9381 20.0099C16.9362 20.0967 16.9305 20.1834 16.9209 20.2697C16.9116 20.3319 16.9054 20.3956 16.8999 20.4555C16.8968 20.4789 16.8968 20.4999 16.8961 20.5255C16.8953 20.545 16.8883 20.5722 16.8968 20.5877C16.9005 20.5936 16.9056 20.5984 16.9116 20.6018C16.9396 20.6212 16.9855 20.636 17.0127 20.6562C17.0127 20.664 17.0143 20.6717 17.0127 20.6803C16.9396 20.6881 16.8719 20.7013 16.8004 20.7114C16.7716 20.5932 16.7382 20.4765 16.711 20.3568ZM16.431 19.2142C16.4341 19.2065 16.4496 19.2041 16.4504 19.1925C16.4504 19.1816 16.4426 19.1769 16.4411 19.166C16.452 19.1691 16.4566 19.1816 16.466 19.1925C16.4706 19.1979 16.4893 19.2158 16.4978 19.2158C16.5087 19.2189 16.529 19.2104 16.5212 19.1979C16.5111 19.1917 16.4978 19.1948 16.4877 19.187C16.4722 19.1761 16.4644 19.1567 16.4566 19.138C16.4621 19.1264 16.4566 19.1116 16.4465 19.1077C16.4481 19.1003 16.4478 19.0926 16.4458 19.0853C16.4438 19.078 16.44 19.0713 16.4349 19.0657V19.0618H16.4372C16.4558 19.0711 16.4761 19.0805 16.4932 19.0906C16.511 19.1002 16.5262 19.1139 16.5375 19.1308C16.5487 19.1476 16.5557 19.1669 16.5577 19.187C16.571 19.1948 16.5865 19.2002 16.5966 19.2119C16.5904 19.243 16.5803 19.2671 16.5577 19.2819C16.543 19.2741 16.5297 19.2617 16.5165 19.2531C16.501 19.2671 16.4504 19.2594 16.4387 19.2469C16.4348 19.243 16.4278 19.2236 16.431 19.2142ZM16.3882 19.1948C16.3781 19.1979 16.375 19.2065 16.3711 19.2158C16.3555 19.2119 16.3439 19.1816 16.3656 19.1707C16.3843 19.1629 16.4395 19.1746 16.4395 19.1878C16.4403 19.208 16.403 19.194 16.3882 19.1948ZM16.3392 19.1419C16.3547 19.1248 16.3913 19.1341 16.4092 19.1419C16.4193 19.145 16.4364 19.1497 16.4294 19.1629C16.4045 19.166 16.3711 19.1528 16.3501 19.173C16.3407 19.1691 16.3369 19.1544 16.3392 19.1419ZM16.3345 19.096C16.3392 19.0906 16.3547 19.0906 16.3625 19.0898C16.3905 19.0867 16.4014 19.0991 16.4193 19.1092C16.4302 19.117 16.4473 19.1194 16.4457 19.1287C16.4457 19.1357 16.438 19.1365 16.4255 19.1357C16.4076 19.1326 16.3866 19.1186 16.3649 19.124C16.3547 19.124 16.347 19.1318 16.34 19.1318C16.3267 19.1287 16.3283 19.1038 16.3345 19.096ZM16.4341 19.0991C16.4224 19.1015 16.4138 19.0883 16.4045 19.0844C16.3812 19.0743 16.3524 19.0836 16.3306 19.0882C16.3174 19.0237 16.4457 19.0525 16.4341 19.0991ZM16.347 19.0011C16.3532 19.0011 16.3586 19.0089 16.3625 19.0144C16.3719 19.0245 16.389 19.0346 16.3983 19.0463C16.3835 19.04 16.3625 19.0463 16.3516 19.0385C16.3423 19.0346 16.3306 19.0027 16.347 19.0019V19.0011ZM16.62 19.2041C16.62 19.1987 16.6277 19.2002 16.6308 19.2018C16.6402 19.2236 16.6277 19.25 16.6192 19.2718C16.6114 19.2874 16.5951 19.3146 16.5795 19.3224C16.5686 19.3286 16.5531 19.3286 16.5531 19.3146C16.5531 19.3091 16.5686 19.299 16.5741 19.2928C16.5961 19.2671 16.612 19.2368 16.6207 19.2041H16.62ZM16.6557 19.2212C16.6588 19.2189 16.6666 19.2158 16.669 19.2212C16.6596 19.2251 16.6464 19.2446 16.6596 19.2524C16.6534 19.2601 16.6448 19.2632 16.648 19.278C16.6402 19.2819 16.6324 19.2912 16.6355 19.299C16.6316 19.3052 16.6277 19.3091 16.6238 19.3138L16.6246 19.3216C16.6098 19.3239 16.6098 19.3395 16.5974 19.3434C16.5935 19.3434 16.5935 19.334 16.5912 19.3309C16.6231 19.3052 16.6386 19.2632 16.655 19.2212H16.6557ZM16.6744 19.3045C16.6752 19.2982 16.6752 19.2928 16.6783 19.2874C16.6823 19.2822 16.6855 19.2764 16.6876 19.2702C16.6907 19.2625 16.6876 19.2531 16.697 19.2477C16.7584 19.2594 16.8245 19.2702 16.8813 19.2889C16.8945 19.2928 16.9077 19.2967 16.9178 19.3021C16.9287 19.3076 16.9365 19.32 16.9474 19.3255C16.9567 19.3262 16.9614 19.3309 16.9684 19.3247C16.9894 19.3045 16.9606 19.2741 16.9349 19.2741C16.9349 19.264 16.9381 19.2562 16.9412 19.2477C16.9451 19.2454 16.9606 19.2477 16.9684 19.2477C17.0047 19.255 17.0397 19.2681 17.0718 19.2866C17.064 19.3325 17.0376 19.3589 17.0244 19.3993C17.0088 19.4149 17.0042 19.4445 16.9793 19.4499C16.9593 19.4482 16.9395 19.4449 16.9202 19.4398L16.8626 19.4266C16.8447 19.4211 16.8284 19.4126 16.8113 19.4087C16.7584 19.3885 16.7047 19.362 16.6542 19.3426C16.655 19.3255 16.669 19.3177 16.6752 19.3037H16.6744V19.3045ZM16.9521 19.2041C17.0006 19.206 17.0477 19.2205 17.0889 19.2461C17.0889 19.2492 17.0889 19.2531 17.085 19.2562C17.041 19.2377 16.9951 19.2239 16.9482 19.215C16.9482 19.2088 16.9489 19.2057 16.9521 19.2049V19.2041ZM16.9808 19.0735C16.9902 19.0175 16.9995 18.9607 17.0143 18.9C17.0259 18.8487 17.0353 18.8036 17.0563 18.7647C17.0633 18.7515 17.071 18.7445 17.0812 18.7336C17.085 18.7305 17.085 18.7243 17.0889 18.7212C17.1022 18.7103 17.1169 18.7025 17.1317 18.6877C17.134 18.6877 17.1379 18.6854 17.1379 18.6877C17.1527 18.676 17.1768 18.6737 17.1932 18.6644H17.1978C17.1991 18.7054 17.2038 18.7462 17.2118 18.7865C17.218 18.8098 17.225 18.8277 17.2274 18.8487L17.1379 18.9133C17.1302 18.9039 17.134 18.8899 17.1224 18.8845C17.1162 18.8946 17.1092 18.9016 17.1092 18.9133C17.1092 18.921 17.1185 18.9366 17.1169 18.9444C17.1154 18.9553 17.1193 19.0058 17.1169 19.0253C17.1154 19.0361 17.106 19.0875 17.1045 19.1124C17.1037 19.1256 17.1022 19.1349 17.1037 19.1466C17.0605 19.1329 17.0163 19.1225 16.9715 19.1155C16.9754 19.1015 16.9754 19.0844 16.9808 19.0743V19.0735ZM17.2305 18.879C17.2398 18.8923 17.2702 18.8923 17.2593 18.9156C17.2468 18.9335 17.2303 18.9481 17.211 18.9584H17.1978C17.1978 18.9428 17.2079 18.9397 17.2118 18.9288C17.2196 18.9187 17.2165 18.9 17.2118 18.8923C17.2149 18.8845 17.2258 18.8829 17.2313 18.879H17.2305ZM17.2779 18.6286V18.6317C17.2849 18.6737 17.2888 18.7157 17.2966 18.7538C17.3005 18.767 17.3075 18.7787 17.3075 18.7935C17.295 18.8049 17.2805 18.8138 17.2647 18.8199C17.2438 18.7641 17.2345 18.7045 17.2375 18.6449C17.2513 18.6408 17.2649 18.6356 17.2779 18.6294V18.6286ZM17.2686 18.2747C17.2725 18.2561 17.2756 18.2405 17.2818 18.2257L17.2966 18.2032C17.3254 18.1689 17.3689 18.1534 17.4117 18.1363C17.4117 18.127 17.4117 18.1161 17.4156 18.1067C17.4187 18.1168 17.4179 18.1285 17.421 18.1363C17.4584 18.1425 17.4794 18.1612 17.5043 18.1822C17.5307 18.2008 17.5533 18.2288 17.561 18.2654C17.5649 18.2833 17.5641 18.2965 17.5688 18.3121C17.5758 18.3261 17.5875 18.3377 17.5859 18.3587C17.5847 18.3962 17.5759 18.4331 17.56 18.467C17.5441 18.501 17.5214 18.5314 17.4934 18.5563C17.4809 18.5674 17.4662 18.5759 17.4503 18.5811C17.4343 18.5864 17.4175 18.5882 17.4008 18.5866C17.3704 18.5792 17.3423 18.5642 17.3192 18.543C17.2999 18.5237 17.2839 18.5014 17.2717 18.4769C17.2486 18.4426 17.2377 18.4015 17.2406 18.3603C17.2422 18.3261 17.2624 18.3074 17.2686 18.2747ZM17.5501 18.6613C17.554 18.6449 17.5548 18.6379 17.5603 18.6247C17.5726 18.6288 17.5846 18.634 17.596 18.6403C17.5844 18.6527 17.5634 18.6535 17.5494 18.6613H17.5501ZM17.5214 18.5835C17.5214 18.5773 17.5245 18.5679 17.5245 18.5563C17.5245 18.5469 17.5221 18.5392 17.526 18.5329C17.5245 18.5617 17.5393 18.5866 17.5377 18.613C17.5369 18.6395 17.5229 18.6597 17.5144 18.6799C17.4566 18.707 17.4008 18.7379 17.3471 18.7725C17.3302 18.7363 17.3186 18.6977 17.3129 18.6582C17.3106 18.641 17.3067 18.6224 17.309 18.6076C17.309 18.5959 17.3168 18.5866 17.3168 18.5726C17.3277 18.5804 17.3355 18.5889 17.3464 18.5998C17.3658 18.6154 17.3907 18.6387 17.428 18.6387C17.4397 18.6387 17.4514 18.634 17.4638 18.6309C17.4778 18.6309 17.4926 18.6387 17.5058 18.6286C17.5136 18.6247 17.5229 18.6099 17.5229 18.5975C17.5229 18.5913 17.5198 18.5874 17.5198 18.5835H17.5214ZM17.6349 18.7212C17.617 18.7445 17.5898 18.7616 17.5649 18.7818C17.5144 18.8199 17.463 18.8557 17.4125 18.8977C17.4008 18.9072 17.3899 18.9176 17.3798 18.9288C17.3627 18.9459 17.3402 18.9584 17.3479 18.9871C17.3666 18.9864 17.3783 18.9685 17.3899 18.9584L17.5105 18.8471L17.5198 18.8394V18.8425C17.5431 18.8215 17.5704 18.8036 17.5968 18.7818C17.6108 18.7702 17.624 18.7585 17.6411 18.7492C17.6443 18.7484 17.6466 18.7453 17.6489 18.7437H17.6466C17.6601 18.7344 17.6741 18.7258 17.6886 18.718C17.6971 18.7145 17.7059 18.7118 17.715 18.7103C17.7306 18.7072 17.7562 18.6885 17.7695 18.7072C17.7539 18.7204 17.7352 18.725 17.7189 18.7359C17.694 18.7546 17.6723 18.767 17.6489 18.7857C17.6419 18.7935 17.6341 18.7989 17.6264 18.8059C17.5958 18.8324 17.5675 18.8612 17.5416 18.8923C17.5268 18.9092 17.5128 18.9269 17.4996 18.9451C17.4717 18.9804 17.4452 19.0167 17.4203 19.054C17.3697 19.1295 17.3215 19.2065 17.2577 19.2695C17.2406 19.285 17.19 19.3084 17.1823 19.2664C17.1932 19.2656 17.2056 19.2656 17.2134 19.2609C17.234 19.248 17.2515 19.2307 17.2647 19.2104C17.274 19.1987 17.288 19.1839 17.2818 19.1715C17.2639 19.1699 17.2562 19.1894 17.2476 19.2002C17.2297 19.208 17.2204 19.2189 17.197 19.2189C17.1504 19.2189 17.127 19.1925 17.1278 19.1396C17.1278 19.1264 17.1255 19.0696 17.1309 19.0556C17.1408 19.035 17.1558 19.0173 17.1745 19.0043C17.2087 18.9786 17.2344 18.9591 17.2678 18.9358C17.2779 18.928 17.2857 18.9179 17.2966 18.9101C17.316 18.8961 17.3402 18.8829 17.3596 18.8681C17.4109 18.8355 17.4638 18.8051 17.5198 18.7772V18.7803C17.5431 18.767 17.5688 18.7569 17.5921 18.7437H17.5883L17.6349 18.7204V18.7212ZM17.6279 19.3768V19.3558L17.6271 19.3348L17.6279 19.3231C17.6271 19.32 17.6287 19.3231 17.6287 19.32L17.6326 19.3208C17.6334 19.3325 17.6365 19.3488 17.6365 19.3628C17.6365 19.3729 17.6365 19.3799 17.6326 19.3885C17.6287 19.3869 17.6271 19.3807 17.6271 19.376L17.6279 19.3768ZM17.3534 20.4913C17.3409 20.5178 17.3254 20.5395 17.3122 20.5636C17.2997 20.5875 17.2837 20.6092 17.2647 20.6282C17.2305 20.6671 17.1955 20.7099 17.1628 20.7503C17.134 20.7861 17.1037 20.8219 17.0773 20.8615C17.0734 20.8654 17.0695 20.8747 17.0617 20.8747C17.0563 20.8561 17.0563 20.8351 17.0539 20.8141C17.048 20.7479 17.0459 20.6814 17.0477 20.615C17.0493 20.5675 17.0648 20.5388 17.0827 20.503C17.087 20.4914 17.0917 20.48 17.0967 20.4688C17.12 20.4135 17.1457 20.3544 17.1737 20.307C17.1947 20.2634 17.2227 20.2261 17.246 20.1872C17.2966 20.1102 17.3479 20.034 17.3915 19.95C17.4257 19.8862 17.4537 19.8232 17.4864 19.7587C17.5066 19.7167 17.5299 19.6731 17.5501 19.6327C17.5658 19.6008 17.5868 19.5718 17.6124 19.5471C17.6124 19.544 17.6147 19.5432 17.6186 19.544C17.6295 19.5448 17.6217 19.5782 17.6217 19.586L17.6108 19.6265C17.5766 19.7641 17.5346 19.8909 17.4895 20.0192C17.4833 20.0441 17.47 20.0705 17.4623 20.0947C17.4545 20.1195 17.4467 20.1491 17.4366 20.1709C17.4311 20.1802 17.4234 20.1903 17.4187 20.1997C17.4117 20.2094 17.4057 20.2198 17.4008 20.2308C17.3891 20.2525 17.3759 20.2735 17.3697 20.2945C17.3598 20.3054 17.3512 20.3174 17.344 20.3303C17.33 20.3536 17.3137 20.377 17.3059 20.4089C17.302 20.4221 17.295 20.4462 17.3067 20.4509C17.3215 20.4571 17.3363 20.4291 17.344 20.4198L17.3689 20.3746C17.4179 20.2837 17.4576 20.1748 17.4957 20.076C17.5354 19.9718 17.5688 19.8652 17.5991 19.7548C17.6054 19.7268 17.6147 19.6988 17.6217 19.67C17.624 19.6622 17.6217 19.649 17.6318 19.6451C17.6318 19.6793 17.6256 19.7112 17.6217 19.7454C17.6156 19.7761 17.6084 19.8064 17.5999 19.8364L17.5533 20.0153C17.5208 20.1274 17.4791 20.2367 17.4288 20.342C17.4164 20.3669 17.407 20.3933 17.3915 20.4182L17.3526 20.4905L17.3534 20.4913ZM17.0944 21.0466C17.0998 21.0295 17.1115 21.0124 17.1208 20.9953C17.1598 20.9288 17.2027 20.8647 17.2492 20.8032C17.2608 20.7876 17.2725 20.7744 17.2818 20.7589C17.2981 20.7348 17.3157 20.7117 17.3347 20.6896C17.3394 20.6834 17.344 20.6725 17.3518 20.6679C17.3596 20.678 17.351 20.6927 17.3487 20.7021C17.3355 20.7612 17.3254 20.8149 17.302 20.8693C17.302 20.8732 17.2725 20.9206 17.2896 20.93C17.2997 20.9323 17.3129 20.902 17.316 20.8942C17.335 20.8498 17.3513 20.8043 17.365 20.7581C17.379 20.7114 17.3938 20.6647 17.4117 20.6204C17.4195 20.6049 17.4241 20.5885 17.4319 20.5753C17.4381 20.5683 17.4475 20.5636 17.4521 20.5551L17.4529 20.5566C17.4537 20.5792 17.4475 20.6111 17.4428 20.643C17.435 20.6881 17.4249 20.7301 17.4164 20.7736C17.3989 20.8482 17.3789 20.9221 17.3565 20.9953L17.281 21.2022C17.2771 21.2132 17.2727 21.2241 17.2678 21.2348C17.26 21.2519 17.2577 21.2706 17.2429 21.2737C17.2352 21.2768 17.2196 21.2714 17.2072 21.2706C17.1687 21.2632 17.1325 21.247 17.1014 21.2232C17.0967 21.1987 17.0933 21.1741 17.0913 21.1493C17.0882 21.1104 17.0804 21.077 17.0936 21.0466H17.0944ZM17.0189 20.7557C17.0228 20.811 17.0244 20.8662 17.0267 20.9245C16.9797 20.9136 16.9308 20.9133 16.8836 20.9237C16.8782 20.9264 16.8732 20.9298 16.8688 20.9338C16.8688 20.9525 16.8789 20.965 16.8875 20.9751C16.8953 20.9751 16.9046 20.9774 16.9108 20.9813C16.9272 20.979 16.9427 20.972 16.9645 20.9774C16.9707 20.979 16.9785 20.9875 16.9855 20.9898C16.9956 20.9937 17.0049 20.9953 17.0104 20.9992C17.0259 21.0108 17.0337 21.0303 17.0477 21.0412C17.057 21.077 17.0617 21.1306 17.0672 21.1734C17.0725 21.2081 17.0803 21.2424 17.0905 21.2761C17.0836 21.2734 17.0762 21.272 17.0687 21.2722C17.0454 21.2691 17.0182 21.2706 16.9956 21.2659C16.9785 21.2636 16.9567 21.2636 16.9334 21.2621L16.8152 20.7869C16.8349 20.7773 16.8563 20.7715 16.8782 20.7697L16.9909 20.7542C17.0001 20.7528 17.0094 20.7536 17.0182 20.7565L17.0189 20.7557ZM17.2857 19.418C17.2702 19.4242 17.2725 19.4048 17.2686 19.3861C17.2655 19.3675 17.2554 19.3441 17.2764 19.3449C17.2831 19.3687 17.2863 19.3933 17.2857 19.418ZM17.2888 19.3146C17.281 19.3224 17.2647 19.3317 17.2476 19.3224C17.2507 19.3091 17.2647 19.3068 17.2725 19.3014C17.2818 19.2944 17.2896 19.2858 17.2989 19.2819C17.3178 19.2788 17.3355 19.2707 17.3503 19.2586C17.3542 19.2586 17.3542 19.2601 17.3565 19.2601C17.3409 19.2811 17.3114 19.299 17.2888 19.3146ZM17.3433 19.4079C17.3393 19.3981 17.3374 19.3875 17.3378 19.3769C17.3382 19.3663 17.3409 19.356 17.3456 19.3465C17.3528 19.3366 17.3622 19.3284 17.3729 19.3225C17.3837 19.3165 17.3956 19.3131 17.4078 19.3122C17.4467 19.3084 17.4856 19.3216 17.4988 19.3465C17.512 19.3838 17.4988 19.4242 17.4685 19.4398C17.4273 19.4631 17.3573 19.4429 17.3433 19.4071V19.4079ZM17.2305 20.0208C17.2072 20.027 17.2025 20.0519 17.1916 20.0698C17.1745 20.1087 17.1574 20.1437 17.1418 20.1864C17.106 20.2735 17.0703 20.37 17.0361 20.461C17.0329 20.4688 17.0322 20.4804 17.0228 20.4874C17.0182 20.4765 17.0189 20.461 17.0189 20.4478C17.0176 20.3777 17.0186 20.3077 17.0221 20.2378C17.0244 20.2105 17.0283 20.1872 17.0298 20.16L17.0283 20.1024C17.0298 20.0869 17.0353 20.0713 17.0392 20.0542L17.0508 20.0091C17.0523 20.001 17.0555 19.9933 17.0602 19.9866C17.0827 19.9241 17.1142 19.8651 17.1535 19.8116C17.1862 19.7649 17.2219 19.7206 17.2577 19.6809C17.3044 19.6272 17.3549 19.5813 17.4117 19.5409C17.4457 19.5178 17.4773 19.4912 17.5058 19.4616C17.5151 19.4507 17.5214 19.4382 17.5338 19.4305C17.5338 19.4445 17.5268 19.4577 17.5229 19.4655C17.5043 19.4927 17.4825 19.5199 17.4623 19.5471C17.4226 19.5992 17.3806 19.6521 17.3448 19.7128L17.2935 19.8038C17.2406 19.8917 17.1939 19.9866 17.141 20.0775C17.1231 20.1083 17.1085 20.1409 17.0975 20.1748C17.1084 20.1748 17.1107 20.1631 17.1162 20.1538C17.1885 20.034 17.2585 19.9088 17.3332 19.7906C17.3722 19.7269 17.4153 19.6658 17.4623 19.6078C17.4977 19.5647 17.5289 19.5184 17.5556 19.4693C17.5665 19.4538 17.5758 19.4351 17.5867 19.4219C17.5968 19.4118 17.6046 19.4413 17.6023 19.4585C17.6015 19.4662 17.5929 19.4795 17.589 19.4896C17.5735 19.5222 17.5641 19.5549 17.5478 19.5852C17.5268 19.6257 17.5043 19.6653 17.4871 19.7034C17.4483 19.7874 17.4016 19.8613 17.3588 19.9368C17.3363 19.9749 17.3153 20.013 17.2943 20.0511C17.2352 20.1577 17.1753 20.2619 17.1177 20.37C17.1123 20.3778 17.1076 20.3925 17.0975 20.3925C17.1254 20.3231 17.1558 20.2546 17.1885 20.1872C17.2056 20.1483 17.2204 20.1172 17.2313 20.0705C17.2352 20.0542 17.2445 20.0324 17.2313 20.0208H17.2305ZM17.5354 19.2594C17.554 19.25 17.5688 19.2492 17.5805 19.2422H17.5844V19.2461C17.5844 19.25 17.5789 19.2531 17.5766 19.257C17.5634 19.2765 17.561 19.3084 17.5424 19.3177C17.5307 19.3255 17.5159 19.32 17.4988 19.3231C17.4677 19.2928 17.3977 19.292 17.3612 19.313C17.3495 19.3185 17.3378 19.3309 17.3176 19.3262C17.3215 19.3107 17.3363 19.3045 17.3487 19.2967C17.372 19.2835 17.393 19.2695 17.4195 19.2562C17.4327 19.25 17.4475 19.243 17.4615 19.2469C17.463 19.2664 17.4724 19.2804 17.5011 19.2741C17.5076 19.2721 17.5138 19.2695 17.5198 19.2664V19.2679C17.5253 19.2664 17.5307 19.2617 17.5354 19.2601V19.2594ZM17.1963 19.4242C17.1963 19.3939 17.1947 19.3675 17.1963 19.341V19.3426C17.1963 19.3675 17.2017 19.4001 17.1963 19.4242ZM17.0726 19.4087C17.0742 19.3993 17.0726 19.3885 17.0757 19.3807C17.0796 19.3628 17.0889 19.3457 17.0967 19.3309C17.1045 19.3426 17.1022 19.362 17.1045 19.3807L17.1146 19.4616C17.1146 19.4826 17.1146 19.5005 17.1068 19.5129L17.0804 19.5588C17.0721 19.5092 17.0697 19.4588 17.0734 19.4087H17.0726ZM17.0967 19.5821L17.1154 19.544C17.128 19.5174 17.1437 19.4924 17.162 19.4693C17.1722 19.4561 17.1815 19.4429 17.1932 19.4305C17.2298 19.4375 17.267 19.4417 17.3044 19.4429C17.3145 19.4437 17.3308 19.4429 17.3402 19.4452C17.3503 19.4483 17.3627 19.4608 17.3759 19.4639C17.3915 19.4701 17.4109 19.467 17.4304 19.4701C17.4164 19.4935 17.393 19.509 17.3728 19.5277C17.3534 19.5451 17.335 19.5635 17.3176 19.5829C17.2818 19.6218 17.2445 19.6591 17.2118 19.7042C17.1789 19.7462 17.1468 19.7887 17.1154 19.8318C17.092 19.8652 17.0726 19.9018 17.0508 19.9376C17.0446 19.9477 17.0399 19.9624 17.0291 19.9702C17.0267 19.8994 17.0368 19.8294 17.0462 19.7626C17.0501 19.733 17.0617 19.7019 17.0703 19.6716C17.0796 19.642 17.0858 19.6093 17.0967 19.5829V19.5821ZM16.9777 20.2922C16.9769 20.349 16.9723 20.4058 16.9715 20.4633C16.9715 20.4866 16.9699 20.51 16.9684 20.5318C16.9676 20.5551 16.9684 20.5753 16.9637 20.5955C16.9559 20.5916 16.9505 20.5854 16.9342 20.5885C16.9497 20.4781 16.9606 20.3669 16.9738 20.2557H16.9769C16.9816 20.2665 16.9777 20.2798 16.9777 20.2922ZM17.0011 20.2292C16.9902 20.2284 16.9793 20.2253 16.9676 20.2222C16.9676 20.0931 16.9676 19.971 16.9738 19.8606C16.9769 19.8294 16.9769 19.7999 16.9769 19.7696L16.9808 19.6848C16.9832 19.6179 16.9832 19.5526 16.9871 19.4795C17.0049 19.4717 17.0166 19.4585 17.0306 19.4491L17.0322 19.4499C17.0423 19.4818 17.0345 19.5199 17.0368 19.5533C17.0399 19.5883 17.0462 19.6257 17.0415 19.6568C17.0407 19.67 17.0345 19.6832 17.0322 19.6941C17.0291 19.7058 17.0283 19.719 17.0213 19.7268C17.0221 19.7423 17.0166 19.761 17.0119 19.7797V19.7929C17.0119 19.7952 17.0088 19.7991 17.0088 19.8007C16.9917 19.9204 17.0011 20.076 16.9987 20.2284H17.0003L17.0011 20.2292ZM17.7975 18.7694L17.8076 18.7958C17.8192 18.8386 17.8262 18.8829 17.8325 18.9296C17.8384 18.951 17.8429 18.9729 17.8457 18.9949L17.8612 19.0595C17.8524 19.0595 17.8437 19.0614 17.8356 19.0649C17.7905 19.0727 17.7282 19.0727 17.6769 19.0882V19.0781L17.6761 19.0688C17.673 19.0517 17.673 19.0533 17.673 19.0393C17.673 19.0276 17.6722 19.0097 17.666 19.012C17.666 18.9965 17.645 18.9654 17.6427 18.9895V19.0105C17.6466 19.0478 17.6458 19.0463 17.6466 19.0867C17.6474 19.1022 17.6505 19.1722 17.645 19.1878C17.6373 19.1878 17.6295 19.1901 17.6217 19.1878C17.6112 19.1933 17.5999 19.1972 17.5883 19.1995C17.5722 19.2047 17.5554 19.2074 17.5385 19.2072C17.5217 19.2042 17.5053 19.1995 17.4895 19.1932C17.4778 19.187 17.4646 19.1761 17.4506 19.1738C17.4125 19.1606 17.4101 19.2002 17.3666 19.1917C17.3814 19.1536 17.4055 19.1232 17.4265 19.0906C17.4539 19.045 17.4852 19.0018 17.5198 18.9615V18.9623L17.5618 18.9125C17.5805 18.8915 17.5991 18.8713 17.6186 18.8518C17.6264 18.8464 17.6318 18.837 17.6443 18.8363C17.639 18.8684 17.6221 18.8975 17.5968 18.9179C17.589 18.9257 17.5813 18.935 17.5758 18.9389C17.568 18.9444 17.5571 18.9467 17.5556 18.956V18.9615C17.5548 18.9801 17.5781 18.984 17.5929 18.9763C17.6085 18.9654 17.6217 18.9366 17.6334 18.9156C17.6658 18.85 17.7123 18.7924 17.7695 18.7468C17.7811 18.7375 17.7928 18.76 17.7975 18.7694ZM17.8776 19.1162C17.8675 19.1194 17.8542 19.1194 17.841 19.1217C17.8379 19.1124 17.8371 19.1022 17.834 19.0914C17.8418 19.0875 17.8535 19.082 17.8651 19.0851C17.8662 19.0965 17.8706 19.1073 17.8776 19.1162ZM17.8854 19.1334C17.8885 19.1365 17.8947 19.1341 17.8947 19.1396C17.8947 19.1474 17.8605 19.1536 17.8542 19.1551C17.8069 19.1689 17.7615 19.1885 17.7189 19.2135C17.7072 19.2212 17.7018 19.2321 17.6886 19.2267C17.6923 19.2194 17.6976 19.213 17.7041 19.208C17.7119 19.2026 17.722 19.1987 17.7282 19.1948C17.7601 19.1808 17.792 19.1637 17.8294 19.1505C17.8457 19.1442 17.8682 19.1411 17.8838 19.1334H17.8854ZM17.8986 19.4616C17.9297 19.5471 17.953 19.6366 17.9779 19.7322C17.9818 19.7454 17.9911 19.768 17.9872 19.7797C17.9849 19.7952 17.9437 19.8061 17.9266 19.8077C17.9165 19.8084 17.9001 19.8084 17.8955 19.8046C17.8877 19.8007 17.8815 19.7781 17.8768 19.7664C17.8457 19.7034 17.7811 19.5106 17.7547 19.4429C17.7446 19.4149 17.7485 19.3939 17.7415 19.3675C17.7391 19.3519 17.7415 19.3348 17.7407 19.2835C17.7778 19.2676 17.8178 19.2597 17.8581 19.2601C17.8628 19.2858 17.8651 19.2874 17.8698 19.3138C17.8714 19.3309 17.8729 19.3317 17.8737 19.3488L17.8776 19.3877C17.8787 19.3975 17.8808 19.4071 17.8838 19.4165C17.8861 19.4305 17.8939 19.4437 17.8994 19.4608L17.8986 19.4616ZM18.0113 19.7843H18.0145C18.0246 19.7937 18.009 19.8092 18.0012 19.8154C17.9695 19.8337 17.9336 19.8433 17.897 19.8434C17.883 19.8434 17.8581 19.8419 17.8667 19.8224C17.9227 19.8357 17.9927 19.8248 18.0106 19.7836L18.0113 19.7843ZM18.0215 19.8193C18.0323 19.817 18.0425 19.8294 18.0425 19.8364C18.0425 19.8497 18.0269 19.8442 18.0121 19.8481C18.0059 19.8497 18.002 19.859 17.9927 19.8613C17.9896 19.8629 17.9826 19.8613 17.9795 19.8629C17.9725 19.8629 17.967 19.8683 17.9608 19.8707C17.9561 19.8707 17.9499 19.8676 17.9452 19.8707C17.9375 19.8707 17.9344 19.8761 17.9281 19.88C17.9149 19.873 17.9095 19.8839 17.9001 19.8862C17.8869 19.8893 17.869 19.8761 17.8791 19.8629C17.8838 19.8536 17.9102 19.8551 17.9242 19.8536C17.9398 19.8511 17.9551 19.8475 17.9701 19.8427C17.9935 19.8349 18.009 19.8201 18.0215 19.8193ZM18.0479 19.8644C18.1008 19.8777 18.1513 19.9026 18.2035 19.9189C18.2369 19.9282 18.2688 19.9368 18.2937 19.9523C18.3007 19.9562 18.3046 19.9601 18.3092 19.9632L18.3372 19.9772C18.3411 19.9803 18.3481 19.9788 18.345 19.985C18.3357 19.9912 18.3294 19.9796 18.3225 19.9772C18.2773 19.9539 18.2315 19.9259 18.1692 19.9181C18.1762 19.9274 18.1879 19.9274 18.198 19.929C18.254 19.943 18.3014 19.978 18.3458 20.0037C18.3536 20.0075 18.3644 20.0114 18.3644 20.0223C18.3567 20.0278 18.3466 20.0215 18.3411 20.0169C18.2906 19.9827 18.24 19.943 18.1653 19.9313C18.1591 19.9446 18.1801 19.9453 18.1863 19.9469C18.2215 19.9551 18.2549 19.9693 18.2851 19.9889L18.3131 20.0083C18.324 20.0145 18.3364 20.0184 18.3419 20.0285C18.3263 20.0402 18.3038 20.0278 18.2867 20.0177C18.2719 20.0114 18.2618 20.0037 18.2455 19.9967C18.2146 19.9855 18.1829 19.9772 18.1506 19.9718C18.1335 19.9679 18.1148 19.9679 18.0992 19.964C18.0845 19.9609 18.0712 19.95 18.0557 19.95C18.0425 19.9656 18.0658 19.964 18.0821 19.9702C18.0829 19.9718 18.0876 19.978 18.0891 19.978C18.1086 19.9834 18.1373 19.9811 18.1615 19.985C18.177 19.9881 18.2066 19.9967 18.2066 20.0044C18.2066 20.0215 18.1467 20.0083 18.1296 20.0083C18.0907 20.006 18.0666 20.0114 18.0308 20.0044C18.0044 20.0005 17.9764 19.9943 17.9616 19.9772C17.957 19.971 17.9538 19.9638 17.9522 19.9562C17.9522 19.9484 17.9554 19.9376 17.9522 19.9274C17.9491 19.9173 17.9429 19.915 17.9476 19.9072C17.9484 19.9002 17.9522 19.9064 17.9624 19.9018C17.9662 19.9018 17.9701 19.8979 17.9725 19.8956C17.9771 19.8956 17.9849 19.8971 17.9896 19.8956C17.9997 19.8956 18.0005 19.8816 18.0152 19.8854C18.025 19.8764 18.036 19.8688 18.0479 19.8629V19.8644ZM18.2859 19.9306C18.2937 19.9243 18.3069 19.9337 18.3201 19.9399C18.331 19.9438 18.3427 19.9461 18.3512 19.95C18.3582 19.957 18.3823 19.9834 18.3878 19.9935C18.394 20.0083 18.3901 20.0247 18.3808 20.0402C18.3652 20.0519 18.3466 20.0597 18.3294 20.069C18.3224 20.0729 18.3162 20.0729 18.3108 20.0768C18.2999 20.0822 18.2952 20.0947 18.2843 20.0947C18.2836 20.0853 18.2913 20.0791 18.2937 20.0721C18.3007 20.0667 18.3046 20.0589 18.3092 20.0542C18.331 20.048 18.3746 20.0418 18.3769 20.0208C18.3769 20.0107 18.3668 20.0068 18.3613 19.9959C18.3574 19.992 18.3567 19.9842 18.3536 19.9819C18.3458 19.9718 18.3302 19.9663 18.3178 19.9578C18.3113 19.9544 18.305 19.9505 18.2991 19.9461C18.2945 19.943 18.2851 19.9383 18.2851 19.9313L18.2859 19.9306ZM18.387 19.9516C18.4103 19.9484 18.4142 19.9726 18.4329 19.9788C18.4461 19.9827 18.4632 19.978 18.4772 19.9819C18.4928 19.9858 18.4959 19.9974 18.5052 20.0091C18.5083 20.013 18.5184 20.02 18.5161 20.0247C18.5146 20.0324 18.5037 20.0324 18.4982 20.0324C18.4827 20.0402 18.4656 20.0565 18.4516 20.0682C18.4346 20.082 18.4146 20.0916 18.3932 20.0962C18.3808 20.097 18.3668 20.0931 18.3536 20.0931C18.3411 20.0931 18.3279 20.1009 18.3178 20.0939C18.3256 20.0838 18.3411 20.0838 18.3536 20.0768C18.3746 20.0674 18.4158 20.0503 18.4127 20.0122C18.4096 19.9928 18.3917 19.9741 18.3878 19.9531V19.9516H18.387ZM18.5348 20.0542C18.5581 20.0527 18.5698 20.0674 18.5807 20.0814C18.6118 20.1289 18.6188 20.2059 18.6413 20.2681C18.6444 20.2805 18.6507 20.2938 18.6545 20.307C18.6662 20.349 18.6639 20.3988 18.6639 20.4478C18.6631 20.4975 18.66 20.5504 18.66 20.6018C18.6631 20.6834 18.6802 20.7612 18.6787 20.8499C18.6787 20.86 18.6818 20.8732 18.6748 20.8825C18.6678 20.8817 18.6678 20.8709 18.667 20.8654C18.6608 20.8467 18.6514 20.8265 18.6491 20.8032C18.6485 20.7866 18.6492 20.7699 18.6514 20.7534C18.6545 20.7076 18.6473 20.6616 18.6304 20.6189C18.6266 20.6111 18.6149 20.5963 18.6133 20.5901C18.6133 20.5831 18.6203 20.5753 18.6211 20.5675C18.6328 20.5131 18.5916 20.4742 18.5931 20.4198C18.5931 20.3988 18.597 20.3793 18.5962 20.3599C18.5944 20.3082 18.5764 20.2585 18.5449 20.2175C18.555 20.2028 18.5737 20.1911 18.5807 20.1685C18.5864 20.1455 18.5859 20.1213 18.5791 20.0985C18.5763 20.0857 18.5701 20.0739 18.5612 20.0643C18.5379 20.0488 18.5044 20.062 18.4881 20.0721L18.478 20.0853C18.4702 20.0915 18.4624 20.0923 18.4539 20.097C18.4772 20.0791 18.5006 20.055 18.5356 20.0534H18.534L18.5348 20.0542ZM18.3769 21.1197C18.3927 21.0916 18.3998 21.0594 18.3971 21.0272C18.3956 20.9961 18.3847 20.9681 18.3901 20.9362C18.3971 20.9059 18.4166 20.874 18.4321 20.8444C18.4452 20.8235 18.4542 20.8003 18.4586 20.776C18.4607 20.7614 18.46 20.7466 18.4562 20.7324C18.45 20.7153 18.4391 20.7013 18.436 20.6873C18.436 20.6725 18.4438 20.6601 18.4508 20.6484C18.4578 20.6399 18.4679 20.6329 18.4733 20.6243L18.4796 20.6095C18.485 20.5963 18.492 20.5823 18.4951 20.5644C18.499 20.5644 18.499 20.5605 18.4998 20.5605C18.4998 20.5605 18.4998 20.5636 18.5021 20.5636C18.506 20.5971 18.4881 20.6391 18.4982 20.6717C18.4998 20.6772 18.5044 20.6834 18.506 20.6889C18.5099 20.6943 18.5114 20.6997 18.5161 20.706C18.5254 20.7246 18.5426 20.7347 18.5472 20.7589C18.551 20.7721 18.551 20.7861 18.5472 20.7993C18.5449 20.8071 18.5394 20.8141 18.5371 20.8281C18.5371 20.8483 18.5464 20.8639 18.5402 20.8825C18.5371 20.8973 18.5247 20.9051 18.52 20.923C18.5153 20.9416 18.5208 20.9657 18.52 20.9828C18.52 20.993 18.5161 21.0062 18.5122 21.0194C18.5076 21.0505 18.506 21.0816 18.485 21.0972C18.478 21.1026 18.4718 21.105 18.4648 21.1088C18.4578 21.1127 18.4539 21.1205 18.4438 21.1221C18.4368 21.1143 18.4407 21.1026 18.4438 21.0956C18.457 21.0591 18.5044 21.0101 18.4671 20.9696C18.4671 20.9914 18.4671 21.021 18.457 21.0396C18.45 21.049 18.4368 21.0575 18.4337 21.0668C18.4298 21.0704 18.4271 21.075 18.4259 21.0801C18.4197 21.1011 18.4259 21.126 18.4142 21.1501C18.4026 21.1773 18.3574 21.189 18.3209 21.175C18.3447 21.162 18.3644 21.1426 18.3777 21.119L18.3769 21.1197ZM18.1902 20.8639C18.1879 20.8747 18.1762 20.8825 18.1801 20.8965C18.1599 20.8716 18.1762 20.8421 18.1762 20.8032C18.1731 20.7721 18.1397 20.7456 18.1568 20.7083C18.1661 20.7153 18.17 20.7239 18.1739 20.7394C18.1762 20.7449 18.1801 20.7487 18.1817 20.7519C18.1817 20.7589 18.1817 20.7643 18.1848 20.7705C18.1887 20.7799 18.1957 20.7876 18.198 20.7931C18.1996 20.8063 18.1863 20.8195 18.1863 20.8351C18.1863 20.8429 18.1933 20.8561 18.1902 20.8639ZM18.0953 21.0062C18.0985 20.9828 18.1086 20.9611 18.1109 20.9377C18.1119 20.9206 18.1119 20.9035 18.1109 20.8864C18.107 20.8366 18.0627 20.7939 18.0759 20.7347C18.0852 20.7324 18.0759 20.7495 18.0837 20.7503C18.093 20.7519 18.0938 20.7449 18.0992 20.7441C18.1148 20.6927 18.0658 20.6601 18.0837 20.6072C18.093 20.615 18.0977 20.6259 18.1109 20.6305C18.1148 20.6453 18.1226 20.6601 18.1241 20.6756C18.1241 20.6873 18.1179 20.6966 18.1179 20.7083C18.1179 20.7394 18.1358 20.7534 18.1482 20.7767C18.1521 20.8219 18.1436 20.8693 18.1599 20.909C18.1677 20.9307 18.1825 20.944 18.1957 20.9611L18.2058 20.9797C18.2213 21.0248 18.2136 21.0746 18.1863 21.0941C18.1755 21.1018 18.163 21.1065 18.1552 21.1158C18.1475 21.1236 18.1475 21.1353 18.1389 21.1407C18.1327 21.1337 18.1389 21.1127 18.1358 21.1011C18.1335 21.0922 18.1299 21.0838 18.1249 21.0762C18.1117 21.056 18.0938 21.0373 18.0946 21.0062H18.0953ZM18.0798 21.0645C18.0798 21.0614 18.0837 21.0614 18.0845 21.0614C18.1007 21.084 18.1089 21.1114 18.1078 21.1392L18.0728 21.1353C18.0751 21.1143 18.0821 21.0863 18.0798 21.0645ZM18.0456 20.9634C18.0347 20.9323 18.0557 20.8903 18.0533 20.8522C18.0515 20.8284 18.0452 20.8052 18.0347 20.7837C18.0199 20.7526 17.9989 20.7254 17.995 20.6904C17.9911 20.6414 18.0238 20.615 18.0339 20.5738C18.0417 20.5582 18.0417 20.5411 18.0448 20.5216V20.5185C18.0526 20.5178 18.0526 20.5255 18.0526 20.5356C18.0549 20.5504 18.0588 20.5582 18.0627 20.5699C18.0656 20.5747 18.0677 20.5799 18.0689 20.5854C18.0705 20.5994 18.0627 20.615 18.0611 20.6282C18.0588 20.6461 18.0673 20.6671 18.0673 20.6803C18.0673 20.6927 18.0635 20.7036 18.0635 20.7145C18.0588 20.7379 18.0526 20.7659 18.0565 20.7923C18.058 20.8055 18.0642 20.8219 18.0681 20.8359C18.0759 20.8623 18.0868 20.8872 18.0837 20.923C18.0837 20.9502 18.0673 20.9774 18.0673 21.0062L18.0463 20.9634H18.0456ZM17.9382 20.9206C17.9394 20.9066 17.9392 20.8926 17.9375 20.8786C17.9375 20.8724 17.9305 20.8654 17.9336 20.86C17.9336 20.8537 17.9382 20.8506 17.9406 20.8429C17.9538 20.804 17.9172 20.7744 17.9009 20.7511C17.8831 20.7284 17.8704 20.7021 17.8637 20.674C17.857 20.646 17.8564 20.6168 17.862 20.5885L17.8651 20.5846C17.8838 20.6049 17.8962 20.6313 17.9157 20.6469C17.9126 20.6834 17.9118 20.7231 17.9289 20.7511C17.9351 20.7643 17.9445 20.7744 17.9522 20.7876C17.96 20.8009 17.9732 20.8156 17.9756 20.8265C17.9802 20.8483 17.967 20.8654 17.96 20.881C17.9445 20.923 17.9522 20.9836 17.9725 21.0101C17.9818 21.0225 18.0051 21.0311 18.0036 21.0474C18.0036 21.063 17.9857 21.0668 17.9779 21.0801C17.9589 21.0659 17.9441 21.0468 17.9351 21.0248C17.9276 21.0095 17.9231 20.9929 17.9219 20.9758C17.925 20.9572 17.9375 20.9401 17.939 20.9206H17.9382ZM17.974 20.0488C17.9684 20.0578 17.9659 20.0685 17.967 20.0791C17.9564 20.0907 17.9484 20.1045 17.9437 20.1195C17.9118 20.1234 17.8931 20.1405 17.8815 20.1685C17.876 20.1818 17.8776 20.1973 17.8784 20.2137C17.8799 20.2199 17.8822 20.2292 17.8822 20.237C17.8809 20.2588 17.8757 20.2801 17.8667 20.3C17.8589 20.3186 17.8402 20.3342 17.8278 20.3529L17.8154 20.3731C17.8085 20.4007 17.8112 20.4297 17.8231 20.4555C17.8286 20.4633 17.8387 20.4703 17.841 20.4765V20.4999C17.8434 20.5077 17.8448 20.5158 17.8449 20.524C17.8449 20.5473 17.8356 20.5691 17.8332 20.5885C17.8311 20.6448 17.844 20.7006 17.8706 20.7503C17.8737 20.7581 17.8807 20.7635 17.883 20.7736C17.8593 20.7639 17.8392 20.747 17.8255 20.7254C17.8122 20.699 17.813 20.6679 17.8122 20.6297C17.8091 20.594 17.7951 20.5636 17.7866 20.531C17.7827 20.5108 17.7819 20.4952 17.7804 20.4765C17.7788 20.4579 17.7835 20.4408 17.7858 20.4213C17.7936 20.3715 17.8029 20.3148 17.8192 20.2673C17.8255 20.2315 17.8441 20.209 17.855 20.1779C17.8793 20.1276 17.9134 20.0826 17.9554 20.0457C17.9655 20.0457 17.9694 20.0402 17.9787 20.0394C17.9826 20.0418 17.9756 20.0449 17.9732 20.0488H17.974ZM18.0051 20.1872C18.0051 20.181 18.0067 20.1794 18.009 20.1755C18.0113 20.1755 18.0113 20.1755 18.009 20.1755C17.9981 20.2045 17.989 20.2341 17.9818 20.2642C17.9804 20.2613 17.9796 20.2581 17.9796 20.2549C17.9796 20.2516 17.9804 20.2484 17.9818 20.2455C17.9849 20.2261 17.9927 20.1942 18.0051 20.1864V20.1872ZM17.8815 20.4081C17.8861 20.3925 17.8986 20.3809 17.9048 20.3661C17.9163 20.3384 17.9231 20.3089 17.925 20.279V20.2735C17.9266 20.2735 17.9266 20.2735 17.9281 20.2767C17.9507 20.3529 17.9048 20.4229 17.9056 20.4921C17.9056 20.5154 17.9134 20.5388 17.9227 20.5582C17.9274 20.5738 17.9382 20.5885 17.9297 20.6126C17.9126 20.5994 17.9048 20.5815 17.8908 20.5605C17.8861 20.5529 17.8817 20.5452 17.8776 20.5372C17.8677 20.4945 17.869 20.4501 17.8815 20.4081ZM17.9134 20.1802C17.9235 20.1748 17.9305 20.1662 17.946 20.1685C17.934 20.1963 17.9279 20.2262 17.9281 20.2564C17.9242 20.2525 17.9172 20.251 17.9126 20.2463C17.897 20.2292 17.9017 20.195 17.9126 20.1802H17.9134ZM17.8457 20.3669H17.8496C17.8667 20.3334 17.8908 20.3054 17.9001 20.265C17.904 20.265 17.9048 20.2689 17.9079 20.2689C17.9064 20.3435 17.848 20.3762 17.8402 20.4423C17.8286 20.4275 17.8294 20.3933 17.841 20.3832V20.3863C17.848 20.3863 17.8402 20.3676 17.8449 20.3785C17.8488 20.3754 17.8426 20.3723 17.8449 20.3676H17.8457V20.3669ZM17.9725 20.3428C17.9725 20.3622 17.974 20.3855 17.9686 20.4065C17.9624 20.4283 17.9468 20.4423 17.9437 20.4672V20.4796C17.9429 20.4851 17.939 20.489 17.9375 20.4936C17.9344 20.5139 17.9398 20.5325 17.9398 20.5574C17.9225 20.5222 17.9184 20.4819 17.9281 20.4439C17.9351 20.4159 17.9484 20.3925 17.9491 20.3645C17.9554 20.3148 17.9484 20.2557 17.9569 20.2082C17.9647 20.1802 17.9818 20.1631 17.9958 20.1421C18.0036 20.139 18.0075 20.1273 18.0176 20.1289C18.0183 20.1258 18.0121 20.1289 18.0137 20.1258C18.0479 20.1024 18.0953 20.076 18.1498 20.0915C18.1305 20.0952 18.111 20.0973 18.0915 20.0978C18.0448 20.1164 18.002 20.1421 17.9795 20.1895L17.9763 20.1958C17.9699 20.2141 17.9659 20.2332 17.9647 20.2525C17.9592 20.2852 17.9725 20.3124 17.9725 20.3428ZM18.443 20.2689C18.4507 20.3185 18.444 20.3692 18.4236 20.4151C18.4103 20.4415 18.3924 20.4633 18.3761 20.489C18.3784 20.4983 18.3854 20.5178 18.3761 20.5271C18.3572 20.5242 18.3391 20.5178 18.3225 20.5084C18.3256 20.5356 18.3536 20.5388 18.373 20.5489C18.3738 20.5566 18.3652 20.566 18.3606 20.5675C18.3543 20.5683 18.3302 20.5504 18.3225 20.5481C18.3186 20.545 18.3154 20.538 18.3123 20.538C18.3123 20.5644 18.3333 20.5722 18.345 20.5846C18.3411 20.5924 18.3333 20.6041 18.3256 20.6041C18.3046 20.6072 18.2937 20.5683 18.2867 20.5496C18.2735 20.5559 18.2773 20.5753 18.2727 20.5885C18.2392 20.5769 18.2276 20.5419 18.2299 20.5053C18.2377 20.475 18.2937 20.482 18.303 20.4501C18.3036 20.4402 18.3017 20.4303 18.2976 20.4213C18.2937 20.4112 18.2921 20.4026 18.2843 20.4011C18.2781 20.412 18.2944 20.426 18.2843 20.4384C18.2781 20.4423 18.2727 20.4384 18.2665 20.4384C18.2431 20.4353 18.2252 20.4462 18.2042 20.4439C18.1941 20.4431 18.184 20.4384 18.1731 20.4384C18.1653 20.4384 18.1576 20.4392 18.1498 20.4345C18.1467 20.4229 18.1576 20.4112 18.1451 20.4058C18.1411 20.4112 18.1383 20.4174 18.137 20.4239C18.1357 20.4305 18.1358 20.4373 18.1373 20.4439C18.1381 20.4555 18.1506 20.4688 18.1583 20.4742C18.177 20.4843 18.205 20.4843 18.2128 20.5006C18.2167 20.51 18.2167 20.524 18.2136 20.5318C18.2112 20.5636 18.1848 20.5846 18.1583 20.5924C18.1622 20.5831 18.1646 20.5543 18.1537 20.5559C18.1459 20.5559 18.1428 20.5769 18.1366 20.5862C18.1265 20.6018 18.1031 20.615 18.0899 20.5901C18.1086 20.5769 18.1272 20.5691 18.135 20.545C18.1216 20.547 18.1085 20.5509 18.0961 20.5566C18.0806 20.5636 18.0705 20.5722 18.0705 20.545C18.0819 20.5436 18.0928 20.5396 18.1024 20.5332C18.112 20.5269 18.12 20.5184 18.1257 20.5084C18.1101 20.5139 18.0899 20.5224 18.0673 20.5178C18.065 20.5139 18.0689 20.5084 18.0673 20.5061C18.0265 20.4571 18.0037 20.3956 18.0028 20.3319C18.0032 20.2725 18.0193 20.2143 18.0495 20.1631C18.0572 20.1491 18.065 20.1367 18.0806 20.1304C18.1039 20.1216 18.1288 20.1177 18.1537 20.1188C18.1817 20.1211 18.2003 20.1343 18.2221 20.1398C18.2517 20.1475 18.2711 20.1265 18.2952 20.1242C18.3102 20.1222 18.3254 20.1233 18.34 20.1273C18.3545 20.1313 18.3682 20.1382 18.38 20.1475C18.3878 20.1514 18.394 20.1631 18.4026 20.1709C18.4261 20.1986 18.4407 20.2327 18.4446 20.2689H18.443ZM18.4243 20.7122C18.4282 20.7192 18.4352 20.7231 18.4399 20.7309C18.4461 20.7464 18.4461 20.7985 18.4321 20.8032C18.4352 20.7386 18.3746 20.7114 18.3893 20.6453C18.3929 20.6303 18.3978 20.6158 18.4041 20.6018C18.4142 20.5706 18.4306 20.5349 18.4197 20.4936C18.4197 20.4913 18.415 20.4843 18.415 20.4796C18.4206 20.4626 18.429 20.4465 18.4399 20.4322C18.4492 20.4361 18.4492 20.4501 18.4508 20.4571C18.4586 20.4804 18.4733 20.5084 18.4741 20.5372C18.4729 20.5645 18.4651 20.5912 18.4516 20.615C18.4376 20.636 18.415 20.6515 18.4173 20.6857C18.4204 20.6966 18.422 20.7044 18.4251 20.7122H18.4243ZM18.4484 20.2105L18.4477 20.2051C18.4484 20.2074 18.4508 20.2074 18.4516 20.2074C18.478 20.2207 18.4881 20.2549 18.4904 20.2906C18.492 20.3155 18.4803 20.3435 18.4788 20.3661C18.4759 20.3888 18.4814 20.4118 18.4943 20.4306C18.5006 20.4384 18.5161 20.4446 18.5161 20.461C18.5161 20.4765 18.5029 20.4874 18.5006 20.4999C18.4904 20.4882 18.4881 20.4711 18.485 20.4571C18.4803 20.4415 18.4749 20.4252 18.4741 20.4096C18.4726 20.3941 18.4764 20.3832 18.478 20.3669C18.4803 20.3132 18.4702 20.2597 18.4484 20.2105ZM18.5954 20.5426C18.5954 20.5582 18.5884 20.5769 18.583 20.5893C18.5713 20.6072 18.5542 20.6126 18.548 20.6321C18.5402 20.6601 18.5597 20.6865 18.5542 20.7114C18.5464 20.7114 18.5426 20.7005 18.5394 20.6943C18.5342 20.6881 18.5302 20.681 18.5278 20.6733C18.5169 20.636 18.5433 20.5839 18.5317 20.5426C18.5309 20.5349 18.5223 20.5255 18.5208 20.5201C18.5208 20.5006 18.5394 20.4843 18.5363 20.4594C18.5363 20.4439 18.527 20.4376 18.52 20.4252C18.5122 20.4159 18.5044 20.4112 18.5044 20.398C18.5044 20.377 18.5184 20.3591 18.5223 20.3389C18.5294 20.306 18.5242 20.2717 18.5076 20.2424H18.5114C18.5469 20.277 18.5681 20.3236 18.5706 20.3731C18.5706 20.4058 18.5604 20.44 18.5643 20.4726C18.5682 20.4983 18.5931 20.5139 18.5954 20.5426ZM18.5099 20.0993C18.5037 20.0978 18.5161 20.0915 18.5161 20.0884C18.5301 20.0752 18.5527 20.0908 18.555 20.104C18.5713 20.1491 18.5348 20.2028 18.5006 20.2082C18.485 20.2105 18.4617 20.2051 18.4601 20.195C18.464 20.1888 18.4679 20.1919 18.4726 20.1911C18.4977 20.1884 18.5208 20.1761 18.5371 20.1569C18.5472 20.1289 18.534 20.0985 18.5091 20.0985L18.5099 20.0993ZM18.4998 20.1024C18.4998 20.1102 18.4928 20.1157 18.4959 20.1234C18.4959 20.1297 18.5029 20.1328 18.5029 20.1367C18.5029 20.1429 18.4796 20.1538 18.471 20.1577C18.4477 20.1654 18.4142 20.1592 18.4049 20.146C18.4399 20.1403 18.4726 20.1252 18.4998 20.1024ZM18.212 20.034C18.212 20.0223 18.226 20.0262 18.2299 20.0192C18.2563 20.0223 18.2237 20.0441 18.2112 20.034H18.212ZM18.2385 20.0527C18.2563 20.0488 18.2618 20.0324 18.2789 20.0324C18.2906 20.0511 18.2657 20.0604 18.2595 20.0721C18.2462 20.0791 18.2338 20.0892 18.2089 20.0869C18.1933 20.0838 18.1778 20.0752 18.1622 20.0682C18.1257 20.0527 18.0782 20.0628 18.0479 20.0752C18.0183 20.0869 17.9989 20.1063 17.9779 20.125C17.995 20.0705 18.0277 20.041 18.079 20.0324C18.0985 20.0318 18.1181 20.0331 18.1373 20.0363C18.1731 20.0402 18.2089 20.0597 18.2385 20.0519V20.0527ZM17.736 19.2461C17.7368 19.2384 17.7492 19.236 17.7586 19.2345C17.7858 19.2267 17.8192 19.2158 17.8511 19.2158C17.8543 19.2195 17.8562 19.2242 17.8566 19.229V19.2321C17.8379 19.2391 17.8154 19.2399 17.7944 19.243C17.7749 19.2454 17.7555 19.2531 17.7376 19.2508L17.7368 19.2461H17.736ZM17.6583 19.3146C17.6567 19.3091 17.652 19.3068 17.6505 19.3014C17.666 19.2912 17.6793 19.2702 17.6971 19.2632H17.6995C17.7034 19.3068 17.7072 19.3177 17.7072 19.3177C17.7096 19.3309 17.7111 19.3465 17.715 19.3597C17.7189 19.3784 17.7244 19.4219 17.7282 19.4398C17.7329 19.4693 17.7516 19.5401 17.7609 19.5666C17.792 19.6498 17.8286 19.7276 17.8644 19.8007C17.8612 19.8116 17.8519 19.8209 17.8542 19.8341C17.8558 19.8434 17.8644 19.8442 17.8675 19.8512C17.8651 19.8629 17.8581 19.8683 17.8612 19.8784C17.8636 19.901 17.8978 19.9096 17.918 19.9096C17.9242 19.9197 17.9281 19.9313 17.9336 19.9461C17.9367 19.9539 17.9484 19.9749 17.9468 19.985C17.946 19.9928 17.9281 19.9998 17.9235 20.006C17.9079 20.0184 17.8978 20.034 17.8861 20.0511C17.857 20.0903 17.8327 20.1328 17.8138 20.1779C17.8106 20.188 17.8053 20.1973 17.7982 20.2051C17.806 19.8971 17.7804 19.6016 17.6575 19.4095L17.6583 19.3869H17.6598V19.3519C17.6598 19.3402 17.6598 19.3255 17.6567 19.3146H17.6583ZM17.7384 20.636C17.7329 20.6329 17.7384 20.6251 17.7399 20.6204L17.7516 20.5652C17.7516 20.5528 17.7516 20.5419 17.7594 20.5341C17.7594 20.5341 17.7594 20.5356 17.7617 20.5356C17.7555 20.5551 17.7555 20.5815 17.7516 20.6018C17.7477 20.6142 17.7469 20.6274 17.7384 20.636ZM17.7702 20.5753L17.771 20.5722H17.7749C17.7982 20.6282 17.7819 20.699 17.8122 20.7449C17.8294 20.776 17.8636 20.7869 17.9032 20.8001C17.9204 20.8133 17.9095 20.832 17.911 20.8506C17.911 20.8623 17.9204 20.8732 17.9227 20.8872C17.9224 20.9014 17.9203 20.9155 17.9165 20.9292C17.9087 20.923 17.9087 20.9082 17.904 20.8989C17.8978 20.8864 17.89 20.8701 17.8791 20.86C17.8566 20.8351 17.8169 20.8289 17.7936 20.8032C17.7665 20.7701 17.7507 20.7292 17.7485 20.6865C17.7469 20.6469 17.7695 20.6173 17.7695 20.5753H17.7702ZM18.0051 20.9906C18.002 20.9961 18.0082 21.0077 18.002 21.0085C17.9919 21.0054 17.9896 20.9937 17.9865 20.986C17.9756 20.9601 17.9732 20.9316 17.9795 20.9043C17.9903 20.8701 18.0028 20.8359 17.9911 20.7977C17.9857 20.7822 17.9732 20.7666 17.9624 20.748C17.9491 20.7231 17.9344 20.7013 17.9398 20.6609C17.9437 20.6336 17.9546 20.6018 17.9554 20.5691C17.9569 20.5333 17.9554 20.5006 17.9655 20.4711C17.9705 20.455 17.9776 20.4396 17.9865 20.4252C17.9935 20.4221 17.9958 20.4384 17.9981 20.4462C18.0059 20.4695 18.0129 20.5084 18.0059 20.5388C18.0005 20.5582 17.9904 20.5738 17.9834 20.5932C17.9739 20.6255 17.9715 20.6594 17.9763 20.6927C17.9795 20.7075 17.9865 20.7215 17.9919 20.7347C18.0028 20.7635 18.0269 20.79 18.0308 20.8219C18.0329 20.8366 18.0326 20.8515 18.03 20.8662C18.0292 20.8973 18.0113 20.9175 18.0207 20.9517C18.0246 20.9673 18.0378 20.9836 18.0456 20.9992C18.0551 21.0194 18.06 21.0415 18.0599 21.0638C18.0597 21.0862 18.0546 21.1082 18.0448 21.1283C18.0292 21.1244 18.0215 21.1104 18.0129 21.0987C18.0378 21.0692 18.0246 21.0171 18.0059 20.9898L18.0051 20.9906ZM18.2952 20.9051C18.2952 20.8989 18.2991 20.8895 18.2991 20.8833C18.2991 20.8701 18.289 20.8584 18.2913 20.8429C18.2929 20.8281 18.3038 20.8164 18.3069 20.8009C18.3069 20.7837 18.2968 20.7744 18.2968 20.7557C18.2945 20.748 18.3007 20.7324 18.3007 20.7215C18.2999 20.7161 18.2929 20.6725 18.2851 20.6725C18.2742 20.6717 18.2696 20.6974 18.2696 20.7114C18.2676 20.7198 18.2671 20.7285 18.268 20.7371C18.2696 20.7503 18.2789 20.7589 18.2836 20.7713C18.2898 20.7946 18.2735 20.818 18.2735 20.8359C18.2735 20.8467 18.2781 20.8569 18.2781 20.8654C18.2812 20.8833 18.2688 20.9004 18.2688 20.9175C18.2711 20.9323 18.2843 20.944 18.2882 20.9587C18.303 21.0132 18.2672 21.0521 18.2493 21.0847C18.2392 21.0956 18.2245 21.098 18.2112 21.1127C18.1996 21.1283 18.1972 21.1594 18.1646 21.1431C18.1677 21.1298 18.184 21.1283 18.1895 21.1166C18.2066 21.1034 18.2252 21.0902 18.2315 21.0668C18.2392 21.035 18.2283 20.9914 18.2283 20.9502C18.2283 20.9307 18.2361 20.9175 18.2416 20.8989C18.2476 20.8819 18.2521 20.8645 18.2548 20.8467C18.2587 20.8094 18.2361 20.7767 18.24 20.748C18.2447 20.7347 18.2587 20.7246 18.2602 20.7106C18.2602 20.699 18.2548 20.6927 18.2509 20.6857C18.2361 20.6896 18.2167 20.6857 18.2035 20.6896C18.2003 20.6974 18.1972 20.7044 18.1996 20.713C18.1996 20.7207 18.2089 20.7262 18.2112 20.7347C18.2167 20.748 18.219 20.7612 18.2221 20.7767C18.2245 20.79 18.2322 20.8032 18.2322 20.8172C18.233 20.8584 18.2042 20.8926 18.2073 20.9385C18.2017 20.9337 18.1979 20.9271 18.1965 20.9199C18.1941 20.9136 18.1918 20.9059 18.1941 20.8989C18.1941 20.8856 18.2042 20.8779 18.2058 20.8662C18.2066 20.8561 18.2027 20.846 18.205 20.8351C18.2073 20.8187 18.2206 20.8071 18.2206 20.7946C18.2206 20.783 18.2112 20.7767 18.2073 20.7682C18.2073 20.7425 18.1926 20.7293 18.1941 20.6982C18.1941 20.6959 18.1895 20.6927 18.1895 20.6881C18.1747 20.6803 18.156 20.6873 18.1443 20.678C18.1327 20.6671 18.135 20.6367 18.1241 20.6235C18.1342 20.6173 18.1451 20.6181 18.1591 20.6157C18.1685 20.6119 18.1801 20.6041 18.1879 20.6025C18.198 20.6025 18.2112 20.6103 18.2221 20.6103C18.233 20.6064 18.2392 20.6025 18.247 20.6025C18.2579 20.6025 18.2703 20.6126 18.2812 20.6134C18.2875 20.615 18.289 20.6134 18.2921 20.6134C18.3092 20.6157 18.317 20.6243 18.3263 20.6329C18.3574 20.6228 18.3699 20.5955 18.3831 20.5699C18.3792 20.608 18.3559 20.6321 18.3606 20.6733C18.3644 20.7091 18.3917 20.7316 18.3994 20.762L18.4033 20.7931C18.408 20.8475 18.3816 20.874 18.3644 20.9128C18.3543 20.9051 18.3419 20.8895 18.3419 20.874C18.3419 20.8514 18.3652 20.8327 18.3691 20.811C18.3746 20.7752 18.3567 20.7433 18.3489 20.7176C18.345 20.7036 18.3419 20.6904 18.338 20.6811C18.3341 20.6756 18.3287 20.6717 18.3263 20.6655C18.3209 20.6577 18.3224 20.6445 18.3116 20.6391C18.3022 20.643 18.3014 20.65 18.2999 20.6577C18.2999 20.6811 18.3279 20.7044 18.3357 20.7246C18.3396 20.7324 18.3403 20.7449 18.345 20.7565C18.3533 20.7709 18.3569 20.7875 18.3551 20.804C18.3504 20.825 18.3256 20.8413 18.3232 20.8631C18.3236 20.8782 18.3274 20.8931 18.3341 20.9066C18.3396 20.916 18.3473 20.9237 18.352 20.9315C18.3588 20.9452 18.3632 20.9599 18.3652 20.9751C18.3691 20.9883 18.3761 21.0062 18.3761 21.0202C18.3769 21.0303 18.373 21.0567 18.3722 21.07C18.3685 21.0857 18.3607 21.1002 18.3497 21.112C18.3396 21.1275 18.3364 21.1322 18.3186 21.1415C18.3061 21.1477 18.2929 21.1508 18.2773 21.1555C18.2703 21.1571 18.2618 21.1617 18.2556 21.1633C18.2423 21.1664 18.2338 21.154 18.2175 21.1555C18.2237 21.1151 18.2587 21.1112 18.2781 21.0855C18.2905 21.0715 18.2999 21.0551 18.3056 21.0373C18.3114 21.0195 18.3134 21.0007 18.3116 20.9821C18.3084 20.9572 18.2945 20.9346 18.2945 20.9058V20.9043L18.2952 20.9051ZM18.6491 20.9828C18.6483 20.9891 18.6421 20.9968 18.6382 21.0031C18.6309 21.0233 18.6204 21.0422 18.6071 21.0591C18.5814 21.0902 18.5394 21.1104 18.5037 21.1376C18.4936 21.1454 18.4842 21.1578 18.4726 21.1664C18.4633 21.1774 18.4522 21.1869 18.4399 21.1944C18.4352 21.1975 18.4298 21.2006 18.422 21.1975C18.4158 21.1866 18.4298 21.1866 18.4352 21.1851C18.4399 21.1773 18.4492 21.175 18.4531 21.168C18.4562 21.1656 18.4547 21.1578 18.457 21.1524C18.4679 21.1314 18.4928 21.1197 18.5091 21.098C18.516 21.088 18.5206 21.0765 18.5223 21.0645C18.5247 21.0583 18.5223 21.0513 18.527 21.0458C18.5348 21.0342 18.5496 21.0303 18.5581 21.021L18.5783 20.9945C18.5846 20.9813 18.5896 20.9675 18.5931 20.9533C18.6009 20.9097 18.5814 20.8771 18.5892 20.8219C18.5721 20.8405 18.5791 20.881 18.5791 20.9097C18.5789 20.9266 18.5749 20.9432 18.5674 20.9583C18.5598 20.9734 18.5489 20.9866 18.5356 20.9968C18.5387 20.9821 18.5301 20.9696 18.5301 20.958C18.5332 20.9401 18.5457 20.93 18.5534 20.9183C18.5674 20.895 18.5566 20.8654 18.5612 20.8374C18.5636 20.8242 18.5706 20.8125 18.5729 20.8009C18.5757 20.788 18.5757 20.7748 18.5729 20.762C18.5713 20.7542 18.5651 20.7441 18.5651 20.7347C18.5651 20.7246 18.5752 20.7137 18.5729 20.6966C18.5729 20.6857 18.5667 20.6756 18.5667 20.6655C18.5654 20.6496 18.5695 20.6337 18.5783 20.6204C18.5822 20.6173 18.5861 20.6173 18.5908 20.6142C18.5931 20.6103 18.5986 20.5986 18.604 20.601C18.6172 20.6072 18.6273 20.6539 18.6289 20.6725C18.6316 20.701 18.6313 20.7297 18.6281 20.7581C18.6273 20.7767 18.625 20.7985 18.6273 20.8172C18.6273 20.8561 18.6468 20.8849 18.6491 20.9199C18.653 20.9404 18.653 20.9615 18.6491 20.9821V20.9828ZM16.2746 18.5088C16.2863 18.5018 16.3011 18.4956 16.312 18.4863C16.3073 18.4995 16.2917 18.5088 16.2762 18.5127C16.2762 18.5119 16.2746 18.5119 16.2746 18.5088ZM16.2466 18.6799C16.2389 18.6512 16.2373 18.6138 16.2311 18.5882C16.2381 18.6037 16.2443 18.6247 16.2497 18.6442C16.2536 18.6652 16.2591 18.6877 16.256 18.7064C16.2497 18.7009 16.2482 18.6893 16.2466 18.6799ZM16.2046 18.5166C16.2077 18.5088 16.2179 18.5065 16.2233 18.5034C16.2256 18.5073 16.2186 18.5096 16.2163 18.5127C16.2225 18.5329 16.2225 18.5563 16.2373 18.571C16.2295 18.571 16.2272 18.5765 16.2202 18.5765C16.2202 18.5664 16.2023 18.5298 16.2046 18.5174V18.5166ZM16.1969 18.4559C16.1811 18.4273 16.1642 18.3993 16.1463 18.3719C16.1541 18.3413 16.1593 18.3101 16.1619 18.2786C16.1673 18.2786 16.1642 18.2848 16.165 18.2918C16.1727 18.3152 16.193 18.3439 16.1689 18.3541C16.1766 18.3929 16.1937 18.4272 16.2031 18.4676C16.1984 18.4653 16.1992 18.4598 16.1961 18.4559H16.1969ZM16.1743 18.5726C16.1545 18.575 16.1344 18.5734 16.1152 18.5679C16.1043 18.5625 16.095 18.5547 16.0841 18.5469C16.0631 18.508 16.0716 18.4388 16.074 18.3875C16.081 18.4085 16.0771 18.4497 16.0786 18.48C16.0792 18.4982 16.0828 18.5161 16.0895 18.5329C16.0965 18.55 16.1199 18.5617 16.1409 18.5656C16.1502 18.5687 16.1619 18.5656 16.172 18.5625C16.1797 18.5625 16.1883 18.5563 16.1914 18.564C16.1914 18.5703 16.1805 18.5703 16.1743 18.5718V18.5726ZM19.0738 21.2177C19.0637 21.2154 19.0538 21.2123 19.0442 21.2084C19.0248 21.2045 18.9975 21.2045 18.9773 21.2045C18.9571 21.2022 18.9376 21.2022 18.9151 21.1967C18.8933 21.1928 18.8723 21.1913 18.8529 21.1851C18.8373 21.1796 18.8194 21.1664 18.8039 21.1578C18.7457 21.1278 18.686 21.1008 18.625 21.077C18.639 21.056 18.653 21.0404 18.6639 21.0202C18.6771 20.9937 18.6794 20.9611 18.6849 20.9253C18.6888 20.9043 18.6958 20.881 18.6965 20.8631C18.6997 20.8221 18.6989 20.781 18.6942 20.7402C18.6825 20.6173 18.695 20.4975 18.688 20.3824C18.685 20.3346 18.6753 20.2875 18.6592 20.2424C18.6444 20.1973 18.6343 20.1491 18.618 20.1102C18.6123 20.0952 18.6044 20.081 18.5947 20.0682C18.5869 20.0581 18.5713 20.0495 18.5651 20.0394C18.5651 20.0332 18.5667 20.0301 18.5651 20.0223C18.5589 20.0068 18.5394 20.0013 18.5278 19.9912C18.5177 19.985 18.5122 19.9772 18.5044 19.9726C18.4959 19.9656 18.4861 19.9604 18.4757 19.957C18.4679 19.9547 18.4586 19.9547 18.4508 19.95C18.443 19.9469 18.4399 19.9407 18.4352 19.9368C18.4096 19.9212 18.3847 19.929 18.3504 19.9212C18.345 19.9212 18.3411 19.915 18.3349 19.915C18.2921 19.9018 18.233 19.9127 18.1871 19.8979C18.1366 19.8862 18.0938 19.859 18.0533 19.8458C18.0557 19.8224 18.0378 19.8162 18.0238 19.8084C18.0253 19.7952 18.0347 19.7727 18.0183 19.7641H17.9997C17.9771 19.6832 17.9639 19.6047 17.9429 19.5277C17.9336 19.4896 17.9157 19.453 17.9087 19.4165C17.9048 19.3962 17.904 19.3768 17.8994 19.3511C17.8986 19.3317 17.8916 19.3107 17.89 19.2889C17.8822 19.2555 17.8846 19.2267 17.8822 19.1932C17.8924 19.1792 17.918 19.1629 17.9165 19.1388C17.9171 19.1346 17.9166 19.1303 17.9149 19.1264C17.9118 19.1116 17.9017 19.0976 17.8939 19.0844C17.8745 19.0377 17.8667 18.9833 17.8558 18.9288C17.8449 18.872 17.8371 18.8199 17.8192 18.7725C17.813 18.7569 17.806 18.7406 17.8014 18.7258C17.8014 18.725 17.799 18.725 17.799 18.7235C17.7944 18.69 17.7804 18.6729 17.75 18.6675C17.7461 18.6574 17.7384 18.6496 17.7314 18.6379C17.7275 18.6302 17.7142 18.6138 17.7142 18.6068C17.7104 18.5889 17.7174 18.5757 17.7104 18.564C17.7096 18.5563 17.7002 18.5532 17.6987 18.5469C17.6971 18.5399 17.701 18.5337 17.6995 18.5267C17.6987 18.5174 17.6901 18.5166 17.6862 18.5073C17.6995 18.487 17.6862 18.4645 17.6754 18.4528C17.6862 18.4373 17.6754 18.4217 17.666 18.4108C17.6777 18.3953 17.6629 18.3766 17.6567 18.3642C17.6595 18.3564 17.66 18.348 17.658 18.34C17.6561 18.3319 17.6519 18.3247 17.6458 18.3191C17.6567 18.2934 17.6419 18.2778 17.6396 18.2631V18.2491C17.6396 18.2413 17.6326 18.2358 17.6295 18.2304C17.6287 18.2226 17.6287 18.2156 17.6256 18.2094C17.6244 18.2009 17.6223 18.1926 17.6194 18.1845C17.6124 18.1371 17.6061 18.1083 17.5766 18.0756C17.5564 18.0545 17.5319 18.038 17.5048 18.027C17.4778 18.016 17.4487 18.0108 17.4195 18.0118H17.4187C17.3631 18.0102 17.3084 18.0269 17.2632 18.0593C17.2338 18.0789 17.2125 18.1084 17.2033 18.1425C17.2016 18.1461 17.1992 18.1493 17.1963 18.1518C17.1824 18.1761 17.1744 18.2033 17.1729 18.2312C17.1659 18.2483 17.1613 18.2662 17.1558 18.2825C17.1527 18.2918 17.1543 18.3004 17.1519 18.3113C17.1519 18.3152 17.148 18.3206 17.1457 18.3261C17.1457 18.3315 17.1488 18.3362 17.1488 18.3432C17.1333 18.3533 17.1356 18.3735 17.1379 18.3929C17.1263 18.4007 17.1247 18.4272 17.1356 18.4349C17.12 18.4482 17.12 18.4801 17.1317 18.4956C17.1286 18.5065 17.1224 18.5088 17.1224 18.5189C17.1224 18.529 17.1286 18.5345 17.1286 18.5423C17.1278 18.55 17.1193 18.5547 17.1169 18.5633C17.113 18.5788 17.1169 18.5866 17.1224 18.5959C17.113 18.6092 17.1014 18.6263 17.1092 18.6473C17.1053 18.6535 17.0998 18.6566 17.0975 18.6644C17.0944 18.6683 17.0975 18.6737 17.0944 18.6799C17.092 18.6916 17.0788 18.7002 17.071 18.7087C17.0435 18.746 17.0235 18.7883 17.0119 18.8331C16.9839 18.9537 16.9583 19.0882 16.9256 19.2041C16.9186 19.2275 16.9163 19.2508 16.9031 19.2726C16.8408 19.25 16.7669 19.2415 16.6985 19.2259C16.6954 19.2135 16.697 19.2002 16.6876 19.1932C16.676 19.187 16.6596 19.1971 16.6464 19.201C16.641 19.1847 16.6137 19.1769 16.5982 19.187C16.5904 19.1816 16.5811 19.1792 16.5741 19.1722C16.5668 19.1414 16.5496 19.1138 16.5251 19.0937C16.515 19.0867 16.4986 19.0805 16.4862 19.0711C16.4644 19.0595 16.4457 19.0486 16.4224 19.0408C16.4076 19.0354 16.3773 19.0175 16.3703 19.0043C16.3703 19.0004 16.3703 18.9918 16.368 18.9871C16.3472 18.9095 16.3269 18.8317 16.3073 18.7538C16.3042 18.7406 16.2995 18.7258 16.3003 18.7173C16.3011 18.7095 16.3057 18.7095 16.3073 18.7017C16.3073 18.6947 16.3034 18.6815 16.3026 18.6722C16.2925 18.6387 16.2824 18.6099 16.2785 18.5773C16.3105 18.5723 16.3403 18.558 16.3641 18.536C16.3765 18.515 16.3905 18.4995 16.3882 18.4653C16.3804 18.3782 16.3127 18.3152 16.3073 18.2218C16.3065 18.2016 16.3135 18.183 16.3034 18.1658C16.2933 18.1674 16.2879 18.1814 16.2847 18.1915C16.2599 18.2638 16.3026 18.3284 16.3127 18.3914C16.319 18.4202 16.312 18.4521 16.2933 18.4692C16.2832 18.4769 16.2653 18.494 16.2536 18.4878C16.2418 18.4563 16.2384 18.4223 16.2435 18.3891C16.2334 18.3743 16.2536 18.3579 16.249 18.3401C16.2474 18.3331 16.2357 18.3229 16.2287 18.3167C16.2241 18.3066 16.2171 18.2996 16.2116 18.2934C16.1878 18.2542 16.1667 18.2134 16.1486 18.1713C16.1409 18.1581 16.1385 18.1402 16.123 18.1347C16.1136 18.1425 16.1191 18.1534 16.1206 18.1612C16.1261 18.1915 16.1284 18.2203 16.1307 18.2545C16.1307 18.2778 16.1307 18.3206 16.1261 18.3471C16.123 18.3548 16.1167 18.3642 16.1183 18.3735C16.1214 18.3789 16.1292 18.3828 16.1315 18.3875L16.1447 18.4108C16.1645 18.438 16.1802 18.4679 16.1914 18.4995C16.1873 18.5015 16.184 18.5048 16.1821 18.5089C16.1801 18.513 16.1795 18.5176 16.1805 18.522C16.1331 18.5407 16.1051 18.5073 16.1012 18.4668C16.0973 18.4295 16.1012 18.3891 16.0942 18.3502C16.0895 18.3111 16.0745 18.2741 16.0506 18.2428C16.0444 18.2351 16.032 18.2218 16.0195 18.2273C16.0195 18.2389 16.0289 18.2467 16.0335 18.2568C16.0569 18.3261 16.0468 18.4388 16.0483 18.5213C16.0484 18.5369 16.0524 18.5522 16.06 18.5658C16.0676 18.5794 16.0786 18.5909 16.0919 18.599C16.123 18.6177 16.1642 18.6068 16.2031 18.599C16.2132 18.6286 16.2241 18.669 16.2319 18.7025C16.235 18.7103 16.235 18.718 16.2381 18.7235C16.2404 18.7266 16.2482 18.7297 16.2505 18.7344C16.2567 18.7398 16.2583 18.7608 16.2606 18.7725L16.3291 19.0463C16.3291 19.054 16.3213 19.0571 16.319 19.0618C16.3143 19.075 16.3159 19.0867 16.3159 19.1038V19.124C16.3159 19.1318 16.3236 19.1388 16.3267 19.1466C16.3291 19.1637 16.3267 19.1792 16.34 19.1886C16.34 19.2072 16.3501 19.2244 16.3594 19.2352C16.3672 19.2422 16.3781 19.2454 16.382 19.2516C16.3866 19.2594 16.3913 19.2827 16.3952 19.2967C16.3979 19.3124 16.4016 19.328 16.4061 19.3434C16.4294 19.4367 16.4496 19.5269 16.4745 19.6202C16.5523 19.929 16.6277 20.2354 16.7016 20.5426C16.7164 20.6056 16.7358 20.6647 16.7436 20.7293C16.7298 20.7325 16.7162 20.737 16.7032 20.7425C16.646 20.7624 16.5915 20.789 16.5406 20.8219L16.5235 20.832C16.4426 20.8864 16.3835 20.9782 16.3314 21.0637C16.3241 21.0769 16.3163 21.0899 16.3081 21.1026C16.3042 21.1104 16.3034 21.1197 16.298 21.1291C16.2949 21.1368 16.2879 21.1431 16.2847 21.1524C16.2675 21.1899 16.256 21.2297 16.2505 21.2706C16.2427 21.3209 16.2481 21.3724 16.2661 21.4199C16.2427 21.4184 16.1914 21.4277 16.1899 21.4503C16.1899 21.4635 16.2054 21.4752 16.2085 21.4829C16.1969 21.4884 16.1875 21.4892 16.1696 21.4868C16.1381 21.4814 16.1058 21.4828 16.0748 21.4907C16.067 21.4962 16.0538 21.5047 16.0569 21.5172C16.0569 21.5382 16.1027 21.5436 16.1237 21.5436C16.1339 21.5436 16.1409 21.5397 16.1471 21.5397C16.1659 21.538 16.1849 21.5398 16.2031 21.5452C16.2109 21.549 16.2109 21.5522 16.2147 21.5529H16.2326C16.2373 21.5529 16.2427 21.5568 16.2497 21.5568H16.3073C16.3034 21.5623 16.298 21.5669 16.2917 21.5724C16.2949 21.5802 16.2917 21.584 16.2925 21.5957C16.3034 21.6136 16.3159 21.6198 16.3376 21.6253C16.3789 21.6354 16.4131 21.6152 16.4527 21.619C16.48 21.6222 16.5095 21.6377 16.5453 21.6315C16.5321 21.6455 16.5227 21.675 16.5344 21.6937C16.5414 21.703 16.5515 21.703 16.5601 21.7093C16.5909 21.7121 16.6218 21.7121 16.6526 21.7093C16.6736 21.7093 16.7117 21.6968 16.7304 21.7093C16.7366 21.7139 16.7405 21.7256 16.7475 21.7349C16.7483 21.738 16.7545 21.7419 16.7607 21.7458C16.7638 21.7482 16.7685 21.7552 16.7708 21.7575C16.7841 21.7653 16.8229 21.7715 16.8307 21.7863C16.8315 21.787 16.8268 21.7902 16.8315 21.7917C16.8307 21.8259 16.8323 21.8633 16.8486 21.8881C16.8564 21.899 16.8696 21.9037 16.8751 21.9154C16.8937 21.9263 16.9108 21.941 16.9318 21.9543C16.9435 21.962 16.9598 21.9659 16.9746 21.9721C16.9878 21.9799 16.9979 21.9931 17.0088 22.004L17.0112 22.0033L17.0143 22.0025C17.0081 22.0048 17.0081 21.9916 17.0081 21.9854C17.0081 21.9667 17.0158 21.948 17.0197 21.9309C17.0431 21.8189 16.9785 21.7373 16.9264 21.6859C16.9202 21.6782 16.9108 21.6743 16.9085 21.6649C16.9349 21.6595 16.9505 21.6463 16.9731 21.6346C16.9832 21.6735 16.9902 21.7163 16.9987 21.759C17.0018 21.7715 17.0049 21.7886 17.0143 21.794C17.0244 21.8003 17.0469 21.7902 17.0508 21.7847C17.0617 21.7699 17.0485 21.7427 17.0446 21.7256C17.0384 21.6977 17.0317 21.67 17.0244 21.6424C17.0221 21.6307 17.0127 21.6066 17.0166 21.5973C17.0205 21.584 17.0617 21.5833 17.0866 21.584C17.0998 21.5856 17.12 21.5903 17.1356 21.5903C17.1558 21.5872 17.1729 21.5732 17.1955 21.5802C17.2056 21.5872 17.2095 21.5988 17.2219 21.6012C17.2546 21.6113 17.2958 21.6089 17.3308 21.6012L17.3775 21.5872C17.4008 21.5802 17.4249 21.5802 17.4413 21.57C17.4568 21.5662 17.4903 21.5599 17.491 21.5467C17.491 21.5389 17.4809 21.5389 17.4833 21.5288C17.4965 21.5249 17.5097 21.5195 17.5245 21.5195C17.5455 21.5187 17.5665 21.5249 17.5851 21.5249C17.596 21.5265 17.6085 21.5195 17.6194 21.5226C17.6435 21.5249 17.6676 21.5358 17.694 21.5319C17.7057 21.5288 17.7174 21.5242 17.7345 21.5226C17.75 21.5195 17.7679 21.5265 17.785 21.528C17.8084 21.5284 17.8318 21.5274 17.855 21.5249C17.885 21.5227 17.9144 21.5156 17.9421 21.5039C17.9476 21.5016 17.9577 21.4907 17.9647 21.4907C17.9709 21.4899 17.9872 21.4946 17.9989 21.4977C18.0121 21.4977 18.0261 21.5008 18.0378 21.5008C18.0502 21.5008 18.0728 21.4977 18.0743 21.4899C18.0782 21.4822 18.0627 21.4689 18.0572 21.4651C18.0261 21.4464 17.9662 21.4464 17.9258 21.4534C17.9165 21.4557 17.904 21.4627 17.897 21.4534C17.8978 21.4425 17.9118 21.4456 17.9196 21.4402C17.9266 21.4363 17.9289 21.4293 17.9351 21.4254C17.9711 21.4319 18.0079 21.4322 18.044 21.4262C18.0619 21.4394 18.086 21.4417 18.114 21.4448C18.1163 21.4503 18.1125 21.4565 18.1163 21.4619C18.1319 21.4736 18.1591 21.4767 18.184 21.4767C18.2525 21.4806 18.3294 21.4938 18.3956 21.4977C18.4236 21.5195 18.4788 21.5148 18.5161 21.5265C18.5052 21.5304 18.4982 21.5382 18.4904 21.5436C18.4405 21.5326 18.3886 21.5345 18.3396 21.549C18.3224 21.5568 18.3147 21.577 18.3302 21.5903C18.345 21.6043 18.3792 21.6082 18.4096 21.6082C18.4407 21.6082 18.4702 21.6152 18.4982 21.6082C18.5106 21.6062 18.5223 21.6014 18.5324 21.5942C18.5402 21.5903 18.5418 21.5809 18.5418 21.5732C18.5698 21.5732 18.6507 21.577 18.6545 21.5475C18.6553 21.5382 18.6468 21.5358 18.6452 21.5296C18.6592 21.5319 18.6623 21.5125 18.6755 21.5086H18.695C18.7028 21.5055 18.7152 21.5024 18.7214 21.5008C18.7331 21.4931 18.7362 21.4837 18.7463 21.4744C18.7634 21.4744 18.7798 21.4798 18.7969 21.4713C18.814 21.4651 18.8272 21.4464 18.8467 21.4425C18.8669 21.4363 18.884 21.4433 18.9042 21.4479C18.9221 21.4518 18.9431 21.4588 18.9633 21.4588C18.9804 21.4612 19.0084 21.4588 19.0224 21.4487C19.0333 21.4448 19.0411 21.4347 19.052 21.4308C19.0706 21.4246 19.094 21.4269 19.1064 21.4106V21.3966C19.143 21.3811 19.1601 21.3554 19.1546 21.3056C19.1508 21.2582 19.115 21.2278 19.0714 21.2185H19.0738V21.2177ZM18.0137 21.542C18.0028 21.5428 17.9927 21.5498 17.9849 21.549C17.9779 21.549 17.9717 21.5428 17.9616 21.5389C17.9469 21.5346 17.9318 21.532 17.9165 21.5312C17.8962 21.5312 17.8371 21.5389 17.8659 21.563C17.8752 21.5724 17.9001 21.5763 17.9157 21.5802C17.9139 21.5817 17.9125 21.5836 17.9117 21.5858C17.9108 21.588 17.9106 21.5904 17.9109 21.5927C17.9112 21.595 17.9121 21.5972 17.9135 21.5991C17.9148 21.601 17.9167 21.6025 17.9188 21.6035C17.9375 21.619 17.9927 21.619 18.0222 21.6222C18.0417 21.6222 18.0736 21.6183 18.0985 21.6222C18.1078 21.6245 18.1233 21.6323 18.1342 21.633C18.1579 21.6367 18.1822 21.6311 18.2019 21.6175C18.2136 21.6082 18.2245 21.6019 18.219 21.5864C18.1965 21.5685 18.1607 21.5646 18.121 21.5623C18.1093 21.5319 18.0487 21.5335 18.0145 21.542H18.0137ZM17.876 21.1625C17.8885 21.1508 17.9071 21.1508 17.9188 21.1415C17.8978 21.119 17.8317 21.1221 17.8356 21.1664C17.8395 21.1851 17.8807 21.1897 17.876 21.1625ZM18.191 20.6228C18.1895 20.636 18.2027 20.6492 18.2136 20.6492C18.2268 20.6523 18.2423 20.6383 18.2385 20.6243C18.2276 20.6181 18.2027 20.6204 18.191 20.6228ZM18.0977 20.2844C18.114 20.2782 18.1342 20.2922 18.1179 20.3015C18.1158 20.3018 18.1138 20.3017 18.1118 20.3012C18.1098 20.3006 18.1079 20.2997 18.1062 20.2984C18.1093 20.3155 18.1342 20.314 18.1451 20.3062C18.149 20.3093 18.1529 20.3093 18.1506 20.314C18.128 20.3218 18.0915 20.314 18.0977 20.2829V20.2844ZM18.1366 20.2619C18.1093 20.2471 18.0798 20.2673 18.0557 20.2611C18.051 20.2611 18.0456 20.2533 18.0417 20.2533C18.0417 20.2767 18.0518 20.2875 18.0728 20.2899C18.0837 20.3218 18.1171 20.3326 18.1615 20.3311C18.1661 20.335 18.1646 20.3404 18.1716 20.3412C18.1762 20.3412 18.1832 20.3319 18.1832 20.3272C18.1819 20.3167 18.1782 20.3065 18.1723 20.2977C18.1685 20.286 18.1459 20.2689 18.1366 20.2627V20.2619ZM18.3162 20.307C18.3123 20.307 18.3108 20.3124 18.3069 20.3093C18.3061 20.3015 18.3116 20.3039 18.3147 20.3C18.3147 20.2868 18.3201 20.279 18.3333 20.279C18.3354 20.2803 18.3371 20.2822 18.3383 20.2843C18.3395 20.2865 18.3401 20.2889 18.3401 20.2914C18.3401 20.2939 18.3395 20.2963 18.3383 20.2985C18.3371 20.3007 18.3354 20.3025 18.3333 20.3039C18.3504 20.3093 18.3598 20.293 18.3606 20.2774C18.3683 20.2767 18.3699 20.2805 18.3738 20.2844C18.3691 20.3062 18.3396 20.3186 18.3154 20.3062H18.3162V20.307ZM18.3878 20.2564C18.3707 20.258 18.3504 20.2448 18.3333 20.2471C18.3201 20.2479 18.3046 20.2603 18.2945 20.2704C18.2856 20.2874 18.2801 20.3059 18.2781 20.3249C18.2781 20.3272 18.2789 20.3326 18.2859 20.335C18.2921 20.3389 18.2913 20.3256 18.2952 20.3249C18.331 20.3272 18.3559 20.3272 18.3746 20.314C18.3854 20.3062 18.3901 20.2907 18.3956 20.2759C18.4002 20.2665 18.4127 20.2564 18.4088 20.2432L18.4049 20.2424C18.3994 20.2463 18.3956 20.2557 18.3878 20.2564ZM18.2423 20.2525C18.2351 20.2482 18.2298 20.2412 18.2276 20.2331C18.2221 20.2525 18.2105 20.2557 18.2003 20.258C18.1902 20.2611 18.1848 20.2525 18.1801 20.2525C18.1762 20.2798 18.2213 20.272 18.2307 20.258C18.2385 20.2689 18.2696 20.2805 18.2727 20.2549C18.2618 20.2611 18.2517 20.258 18.2423 20.2525ZM17.4273 19.4165C17.4171 19.4258 17.4125 19.4258 17.4039 19.4126C17.3937 19.4002 17.3887 19.3843 17.3899 19.3682C17.3918 19.3595 17.3954 19.3512 17.4004 19.3439C17.4055 19.3366 17.412 19.3303 17.4195 19.3255C17.4195 19.3255 17.4195 19.327 17.4218 19.327C17.4514 19.3449 17.4537 19.3892 17.428 19.4165H17.4273ZM17.4148 19.32C17.3884 19.3231 17.3689 19.3348 17.3604 19.3519C17.3562 19.3593 17.3538 19.3676 17.3534 19.3761C17.353 19.3846 17.3546 19.3931 17.358 19.4009C17.3643 19.4111 17.3728 19.4196 17.3829 19.426C17.3931 19.4323 17.4045 19.4363 17.4164 19.4375C17.4284 19.4369 17.4402 19.4335 17.4507 19.4275C17.4613 19.4216 17.4703 19.4133 17.477 19.4032C17.4965 19.3589 17.4615 19.3177 17.4148 19.3208V19.32ZM17.4109 18.5065V18.5026C17.4148 18.4995 17.4218 18.5026 17.4265 18.5034C17.4265 18.5096 17.4125 18.5073 17.4109 18.5065ZM17.4731 18.4692C17.4693 18.4692 17.4669 18.4754 17.463 18.4754C17.4584 18.4754 17.4514 18.4715 17.4459 18.4715C17.4381 18.4707 17.4311 18.4738 17.4257 18.4754C17.4086 18.4622 17.3946 18.4808 17.3821 18.4777C17.3728 18.4777 17.3728 18.4715 17.3666 18.4715C17.3619 18.4754 17.3627 18.4855 17.3666 18.4894C17.372 18.4925 17.3814 18.4894 17.386 18.4909C17.3923 18.4987 17.3923 18.5143 17.4047 18.5197C17.4176 18.5235 17.4314 18.5235 17.4444 18.5197C17.4537 18.5143 17.4591 18.5026 17.4615 18.4909C17.4669 18.4894 17.4739 18.4871 17.4848 18.4871C17.4864 18.4754 17.4825 18.4699 17.4739 18.4699" fill="#191917"/>
<path d="M17.4205 3.98584L15.6908 16.9408L17.4236 16.02L17.4205 3.98584ZM13.7207 18.7203L7.04297 16.5496L14.1065 20.6017L13.7207 18.7195V18.7203ZM27.7965 16.5465L19.7553 17.4098L21.1381 18.7133L27.7957 16.5465H27.7965ZM19.7413 23.0337L23.9855 28.7696L20.5183 21.3374L19.7405 23.0329L19.7413 23.0337ZM10.8539 28.7766L17.0386 23.3129L15.1059 23.0306L10.8539 28.7758V28.7766ZM17.6616 23.1729L19.6324 22.8898L20.4257 21.1399L17.6616 23.1729ZM14.4215 21.1422L15.2148 22.8891L17.1817 23.1729L14.4207 21.143L14.4215 21.1422ZM15.2988 17.4635L13.8949 18.7771L14.2877 20.6771L15.2988 17.4635ZM19.5445 17.4635L20.9476 18.7755L20.5548 20.6771L19.5437 17.4635H19.5445ZM19.1728 17.1687L17.4228 16.2245L15.6698 17.1687H19.1728Z" fill="#EE7A00"/>
</svg>
