<svg width="39" height="23" viewBox="0 0 39 23" fill="none" xmlns="http://www.w3.org/2000/svg">
<path fill-rule="evenodd" clip-rule="evenodd" d="M5.23441 0L7.53628 1.98159C7.90826 2.32916 8.19757 2.75463 8.38319 3.22707C8.56881 3.6995 8.64608 4.20706 8.60937 4.71284C8.60937 7.12569 6.10549 8.26347 5.25251 10.2867C4.98938 10.8602 4.86538 11.487 4.89047 12.1167C4.91002 12.3532 5.05701 13.3386 5.34592 13.4061C7.51021 13.9093 9.28349 12.3999 8.58765 9.98918C8.50046 9.50557 8.29896 9.04937 7.99969 8.65806H8.13582L10.4377 10.6749C10.8703 11.0952 11.1348 11.657 11.182 12.2561C11.2085 12.6907 11.1456 13.126 10.9973 13.5357C10.849 13.9454 10.6184 14.3209 10.3194 14.6394C10.0204 14.9579 9.65934 15.2128 9.25808 15.3885C8.85682 15.5642 8.42376 15.6571 7.98521 15.6616C7.29212 15.6719 6.61863 15.4332 6.08883 14.9895L3.44664 12.7003C3.1036 12.3897 2.8385 12.0038 2.67254 11.5734C2.50658 11.1429 2.44436 10.6799 2.49085 10.2213C2.49085 7.94793 4.34668 6.63334 5.18879 4.67906C5.51763 3.91312 5.67524 3.08551 5.65076 2.25328C5.73958 1.5021 5.56382 0.743552 5.15331 0.106371L5.23441 0Z" fill="#F27930"/>
<path fill-rule="evenodd" clip-rule="evenodd" d="M10.9149 17.4728C10.9221 17.4793 13.4687 19.637 13.6794 19.8181L13.5418 19.8569C12.7743 19.2468 11.8207 18.9136 10.8374 18.9117C9.87825 18.9054 8.92758 19.0902 8.04169 19.4551C7.63331 19.6046 7.22806 19.7601 6.82595 19.9216C6.2263 20.1839 5.57063 20.295 4.91726 20.245C3.89282 20.0127 2.9606 19.4845 2.23815 18.727L0 16.8101C0.0101372 16.8166 0.127439 16.7706 0.137576 16.7763C1.37125 17.5469 2.84142 17.8553 4.28369 17.646C4.91002 17.5605 7.21479 16.4479 7.89325 16.4428C8.31902 16.406 8.74789 16.4277 9.16764 16.5075C9.81456 16.6978 10.4113 17.0271 10.9156 17.4721" fill="#143A72"/>
<path d="M12.8431 17.9257C13.376 17.894 13.7786 17.8401 13.8264 17.6482C13.8687 17.4339 13.8845 17.2152 13.8735 16.997V12.0376C13.8845 11.8193 13.8687 11.6003 13.8264 11.3857C13.7786 11.1938 13.376 11.1399 12.8431 11.1083V10.777H16.5721V11.1083C16.0392 11.1399 15.6366 11.1938 15.5888 11.3857C15.546 11.6003 15.5299 11.8192 15.541 12.0376V17.0689C15.541 17.7948 15.9791 17.8595 16.9393 17.8595C18.4555 17.8595 18.6807 17.2716 19.1658 16.3207H19.4982L19.1434 18.2556H12.8431V17.9257Z" fill="#F27930"/>
<path d="M22.997 16.9963C22.9859 17.2144 23.0017 17.4331 23.044 17.6475C23.0911 17.8401 23.4944 17.894 24.028 17.9256V18.257H20.2954V17.9256C20.8283 17.894 21.2309 17.8401 21.278 17.6475C21.321 17.4332 21.337 17.2145 21.3258 16.9963V12.0369C21.3369 11.8185 21.3209 11.5995 21.278 11.385C21.2309 11.1931 20.829 11.1392 20.2954 11.1076V10.7762H24.028V11.1076C23.4944 11.1392 23.0918 11.1931 23.044 11.385C23.0018 11.5996 22.986 11.8185 22.997 12.0369V16.9963Z" fill="#F27930"/>
<path d="M24.9281 10.7762H30.7563V12.4969H30.4362C30.2595 11.7379 29.9627 11.1715 29.1329 11.1715H27.6282V14.3779H28.7542C28.8962 14.3961 29.0406 14.3825 29.1767 14.3381C29.3128 14.2937 29.4371 14.2195 29.5405 14.1212C29.6439 14.0228 29.7239 13.9026 29.7744 13.7696C29.8248 13.6365 29.8447 13.4939 29.8323 13.3522H30.1524V15.842H29.8294C29.7947 15.2533 29.5456 14.7732 28.7513 14.7732H27.6253V16.9956C27.6141 17.2137 27.6301 17.4325 27.6731 17.6467C27.7202 17.8394 28.1235 17.8933 28.6557 17.9249V18.2562H24.9274V17.9249C25.4603 17.8933 25.8629 17.8394 25.9107 17.6467C25.953 17.4324 25.9688 17.2137 25.9577 16.9956V12.0362C25.9687 11.8178 25.9529 11.5989 25.9107 11.3843C25.8629 11.1924 25.4603 11.1385 24.9274 11.1068V10.7762H24.9281Z" fill="#F27930"/>
<path d="M31.3145 17.9256C31.8351 17.894 32.2493 17.8401 32.2978 17.6482C32.3401 17.4338 32.3559 17.2152 32.3449 16.997V12.0376C32.3558 11.8192 32.34 11.6003 32.2978 11.3857C32.2493 11.1938 31.8359 11.1399 31.3145 11.1083V10.7769H37.1311V12.4976H36.811C36.6329 11.7379 36.3498 11.173 35.52 11.173H34.0154V14.1622H34.9979C35.1397 14.1819 35.2841 14.1691 35.4202 14.125C35.5562 14.0809 35.6803 14.0066 35.7831 13.9077C35.8859 13.8088 35.9646 13.688 36.0132 13.5543C36.0618 13.4207 36.0791 13.2778 36.0638 13.1366H36.3838V15.6263H36.0638C36.08 15.483 36.0637 15.3379 36.016 15.2016C35.9683 15.0654 35.8905 14.9415 35.7883 14.839C35.6861 14.7365 35.562 14.658 35.4253 14.6093C35.2885 14.5606 35.1425 14.5429 34.9979 14.5576H34.0154V16.9833C34.0154 17.7955 34.4498 17.8595 35.4251 17.8595C36.9291 17.8595 37.155 17.2716 37.6517 16.3206H37.9725L37.6177 18.2555H31.3181L31.3145 17.9256Z" fill="#F27930"/>
<path d="M37.8067 8.924C37.4099 8.87009 37.2614 8.64728 36.8031 8.0004L34.6084 4.88391L36.3462 2.53359C36.5849 2.28447 36.9043 2.12671 37.2484 2.08797C37.3244 2.05884 37.3908 2.00948 37.4404 1.94532C37.4899 1.88116 37.5207 1.80468 37.5294 1.72428H35.1001C35.1017 1.80997 35.1293 1.89319 35.1793 1.96307C35.2292 2.03295 35.2993 2.08624 35.3803 2.116C35.6395 2.21662 35.7865 2.44447 35.5425 2.78156L34.271 4.46272L33.174 2.83475C32.825 2.31653 33.0292 2.12031 33.3536 2.07216C33.4285 2.0488 33.4941 2.00249 33.5409 1.93988C33.5877 1.87726 33.6134 1.80154 33.6142 1.72356H30.3935C30.394 1.80777 30.4219 1.88957 30.4728 1.95687C30.5238 2.02417 30.5953 2.07341 30.6766 2.09732C31.0352 2.19161 31.3424 2.42147 31.5325 2.73772L33.347 5.4546L31.5976 7.85882C31.4145 8.17933 31.174 8.46405 30.888 8.69903C30.811 8.75441 30.7187 8.78513 30.6236 8.78705C30.5285 8.78898 30.4351 8.76203 30.3558 8.70981V8.70981C30.1329 8.50188 29.9626 8.2445 29.8591 7.95872C29.4305 6.923 28.0272 3.37525 27.3321 1.59634H26.5783C25.6044 3.96822 24.1888 7.47428 23.7732 8.28072C23.6867 8.4581 23.5565 8.6109 23.3946 8.72488C23.2327 8.83886 23.0443 8.91034 22.8471 8.93263C22.8471 8.93263 21.9905 9.07279 21.9007 8.45394C21.8877 8.32601 21.8877 8.19016 21.8877 7.99969V3.11219C21.8877 2.49909 22.0861 2.1505 22.6726 2.07216C22.7488 2.05132 22.8157 2.00527 22.862 1.94163C22.9084 1.87799 22.9314 1.80055 22.9274 1.72213H20.8348L17.9132 7.31832L15.1211 1.72213H12.8764C12.8764 1.72213 12.8699 2.04125 13.1052 2.05994C13.5563 2.09013 13.9177 2.24969 13.9814 3.013V7.68488C13.9768 7.9231 13.9589 8.16089 13.9278 8.39716C13.8858 8.67603 13.7004 8.82841 13.3427 8.90029C13.2528 8.9136 13.1707 8.95864 13.1115 9.02716C13.0524 9.09567 13.02 9.18307 13.0205 9.27332H15.4824V9.24313C15.4703 9.16076 15.4332 9.08401 15.376 9.02313C15.3188 8.96226 15.2443 8.92015 15.1624 8.90244C14.8003 8.83416 14.6034 8.6825 14.5679 8.39932C14.5257 8.1643 14.5075 7.92567 14.5136 7.68704V3.71881H14.536L17.2629 9.27259H17.5229L20.3258 3.89203H20.3584V8.0004C20.3685 8.22054 20.3539 8.44112 20.3149 8.65807C20.2831 8.80182 20.0666 8.8701 19.756 8.90747C19.6712 8.92491 19.5951 8.97068 19.5403 9.03714C19.4854 9.10359 19.4552 9.1867 19.4547 9.27259H25.0302C25.0247 9.18548 24.9926 9.10208 24.9383 9.03342C24.884 8.96476 24.81 8.91407 24.7261 8.88806C24.4422 8.77881 24.3706 8.5021 24.4965 8.15135L24.9592 6.86837H27.789L28.264 8.12978C28.4044 8.48916 28.3791 8.76588 28.0837 8.88088C27.9923 8.90188 27.9101 8.95114 27.8488 9.02154C27.7875 9.09195 27.7503 9.17986 27.7426 9.27259H32.3044C32.3087 9.1809 32.2808 9.09055 32.2255 9.017C32.1701 8.94345 32.0908 8.89126 32.001 8.86937V8.86937C31.8062 8.75293 31.7787 8.48053 32.1458 7.97166L33.6548 5.90094L35.1862 8.10103C35.5678 8.66597 35.4034 8.85572 35.1247 8.91609C35.044 8.93817 34.9723 8.98465 34.9195 9.04906C34.8667 9.11347 34.8354 9.1926 34.83 9.27547H38.0022C38.0066 9.20531 37.991 9.13534 37.957 9.07365C37.923 9.01196 37.8722 8.96107 37.8103 8.92687L37.8067 8.924ZM25.1692 6.38538L26.4168 3.23294H26.4393L27.5884 6.38178L25.1692 6.38538Z" fill="#143A72"/>
<path d="M13.838 20.3183H13.3558V22.959H13.838V20.3183Z" fill="#143A72"/>
<path d="M16.596 22.4674H16.5888L15.7923 20.3363L15.7851 20.3169H15.0175V22.9576H15.5005V20.8078H15.5041L16.3173 22.9396L16.3238 22.9583H17.0718V20.3184H16.596V22.4674Z" fill="#143A72"/>
<path d="M19.1723 21.436C18.7314 21.2994 18.6365 21.2261 18.6365 21.0227C18.6365 20.7719 18.8704 20.7201 19.0666 20.7201C19.2839 20.7201 19.7907 20.7712 19.7965 20.7719H19.8269L19.8443 20.3615L19.8204 20.3572C19.5644 20.3065 19.3045 20.2774 19.0435 20.2702C18.4743 20.2702 18.1608 20.5383 18.1608 21.0227C18.1608 21.5072 18.3976 21.6624 18.9298 21.8342C19.3092 21.9492 19.4366 22.0167 19.4366 22.1993C19.4366 22.4458 19.302 22.5508 18.9848 22.5508C18.7524 22.5508 18.2607 22.4954 18.2542 22.4954L18.2245 22.4918L18.1977 22.9138L18.2238 22.9181C18.4871 22.963 18.7533 22.9895 19.0203 22.9971C19.6408 22.9971 19.9174 22.7463 19.9174 22.1842C19.9174 21.7249 19.6922 21.6028 19.176 21.4324" fill="#143A72"/>
<path d="M22.3243 22.108C22.3243 22.4135 22.1831 22.5393 21.8377 22.5393C21.4923 22.5393 21.3627 22.4149 21.3627 22.108V20.3184H20.8834V22.108C20.8834 22.7219 21.1781 22.9957 21.8377 22.9957C22.4973 22.9957 22.8029 22.7219 22.8029 22.108V20.3184H22.3243V22.108Z" fill="#143A72"/>
<path d="M25.8448 21.1737C25.8448 20.6066 25.5414 20.3198 24.9433 20.3198H23.9788V22.9605H24.4546V22.0534H24.9071H24.9694L25.3365 22.9641H25.8629L25.4386 21.9377C25.5754 21.866 25.6872 21.7552 25.7597 21.6196C25.8321 21.4839 25.8618 21.3298 25.8448 21.1772V21.1737ZM24.4553 20.7647H24.944C25.0001 20.7604 25.0564 20.7684 25.1089 20.7881C25.1615 20.8078 25.2091 20.8387 25.2483 20.8787C25.2874 20.9187 25.3173 20.9667 25.3357 21.0194C25.354 21.0722 25.3605 21.1282 25.3546 21.1837C25.3626 21.2401 25.358 21.2975 25.3412 21.3519C25.3244 21.4063 25.2957 21.4563 25.2572 21.4985C25.2188 21.5407 25.1714 21.5739 25.1185 21.5959C25.0656 21.6179 25.0086 21.6281 24.9513 21.6258H24.4546L24.4553 20.7647Z" fill="#143A72"/>
<path d="M28.2147 20.3184H27.3676L26.7318 22.9238L26.7231 22.959H27.2032L27.3386 22.4257H28.2198L28.3733 22.959H28.8534L28.2205 20.3406L28.2147 20.3184ZM27.8346 20.7417L28.1242 21.9801H27.4414L27.7397 20.7417H27.8346Z" fill="#143A72"/>
<path d="M31.4246 22.4674H31.413L30.6165 20.3363V20.3184H29.849V22.959H30.3312V20.8093L31.1466 22.9411L31.1538 22.9598H31.9032V20.3184H31.4239L31.4246 22.4674Z" fill="#143A72"/>
<path d="M34.6577 22.4947C34.6533 22.4947 34.2029 22.5429 34.0299 22.5429C33.6048 22.5429 33.4759 22.333 33.4759 21.6423C33.4759 20.9516 33.6027 20.7345 34.019 20.7345C34.2145 20.7345 34.6533 20.7855 34.6584 20.7862L34.6888 20.7898L34.7069 20.3651L34.683 20.3608C34.4445 20.3119 34.2023 20.2828 33.9589 20.2738C33.1458 20.2738 32.9792 20.8215 32.9792 21.6394C32.9792 22.4775 33.1436 22.9964 33.9589 22.9964C34.1989 22.9878 34.4381 22.9638 34.675 22.9245L34.7004 22.9202L34.6866 22.489L34.6577 22.4947Z" fill="#143A72"/>
<path d="M37.3853 20.7604V20.3184H35.7445V22.959H37.3853V22.5134H36.2202V21.8622H37.1615V21.431H36.2202V20.7633L37.3853 20.7604Z" fill="#143A72"/>
</svg>
